<?xml version="1.0" encoding="UTF-8"?>
<svg width="40px" height="40px" viewBox="0 0 40 40" version="1.1" xmlns="http://www.w3.org/2000/svg" xmlns:xlink="http://www.w3.org/1999/xlink">
    <!-- Generator: Sketch 58 (84663) - https://sketch.com -->
    <title>Analitica_40x40</title>
    <desc>Created with Sketch.</desc>
    <g id="Analitica_40x40" stroke="none" stroke-width="1" fill="none" fill-rule="evenodd">
        <g id="shutterstock_477048793-[Convertido]" fill-rule="nonzero">
            <g id="Pie_chart" transform="translate(1.983471, 1.652893)">
                <g id="Group" transform="translate(0.000000, 0.330579)">
                    <path d="M13.1239669,0.0661157025 C9.76859504,0.0661157025 6.42975207,1.33884298 3.8677686,3.90082645 C-1.23966942,9.00826446 -1.23966942,17.3057851 3.8677686,22.4132231 L3.8677686,22.4132231 L13.1239669,13.1570248 L13.1239669,0.0661157025 Z" id="Path" fill="#F77128"></path>
                    <path d="M26.214876,13.1404959 C26.214876,9.78512397 24.9421488,6.44628099 22.3801653,3.88429752 C19.8181818,1.32231405 16.4793388,0.0495867769 13.1239669,0.0495867769 L13.1239669,13.1404959 L26.214876,13.1404959 Z" id="Path" fill="#F4BF2A"></path>
                    <path d="M13.1239669,13.1404959 L3.8677686,22.3966942 C8.97520661,27.5041322 17.2727273,27.5041322 22.3801653,22.3966942 C24.9421488,19.8347107 26.214876,16.4958678 26.214876,13.1404959 L13.1239669,13.1404959 Z" id="Path" fill="#78E523"></path>
                </g>
                <path d="M26.214876,13.1404959 L13.4545455,13.1404959 L13.4545455,0.380165289 C13.4545455,0.198347107 13.3057851,0.0495867769 13.1239669,0.0495867769 C12.9421488,0.0495867769 12.7933884,0.198347107 12.7933884,0.380165289 L12.7933884,13.338843 L3.63636364,22.4958678 C3.50413223,22.6280992 3.50413223,22.8264463 3.63636364,22.9586777 C3.76859504,23.0909091 3.96694215,23.0909091 4.09917355,22.9586777 L13.2561983,13.8016529 L26.214876,13.8016529 C26.3966942,13.8016529 26.5454545,13.6528926 26.5454545,13.4710744 C26.5454545,13.2892562 26.3966942,13.1404959 26.214876,13.1404959 Z" id="Path" fill="#FFFFFF"></path>
            </g>
            <g id="Color_shapes" transform="translate(0.330579, 0.330579)">
                <path d="M25.2066116,4.36363636 C19.4380165,-1.40495868 10.0991736,-1.40495868 4.33057851,4.36363636 C-1.43801653,10.1322314 -1.43801653,19.4710744 4.33057851,25.2396694 C10.0991736,31.0082645 19.4380165,31.0082645 25.2066116,25.2396694 C30.9752066,19.4710744 30.9752066,10.1322314 25.2066116,4.36363636 Z M23.9669421,24 C18.892562,29.0743802 10.6446281,29.0743802 5.57024793,24 C0.495867769,18.9256198 0.495867769,10.677686 5.57024793,5.60330579 C10.6446281,0.52892562 18.892562,0.52892562 23.9669421,5.60330579 C29.0578512,10.677686 29.0578512,18.9256198 23.9669421,24 Z" id="Shape" fill="#B8D1CD" style="mix-blend-mode: multiply;"></path>
                <path d="M24.7438017,28.7603306 L34.4132231,38.4297521 C35.5206612,39.5371901 37.3057851,39.5371901 38.3966942,38.4297521 C39.5041322,37.322314 39.5041322,35.5371901 38.3966942,34.446281 L28.7272727,24.7768595 L24.7438017,28.7603306 Z" id="Path" fill="#B77C65"></path>
                <polygon id="Rectangle" fill="#683F34" transform="translate(29.795193, 29.812837) rotate(-45.000000) translate(-29.795193, -29.812837) " points="26.9770378 29.1021002 32.6133474 29.1021002 32.6133474 30.5235742 26.9770378 30.5235742"></polygon>
                <path d="M35.5371901,37.3057851 L25.8677686,27.6363636 L28.7438017,24.7603306 L28.7438017,24.7603306 L24.7438017,28.7603306 L34.4132231,38.4297521 C35.5206612,39.5371901 37.3057851,39.5371901 38.3966942,38.4297521 C38.5950413,38.231405 38.7438017,38.0165289 38.8760331,37.785124 C37.8181818,38.3801653 36.446281,38.214876 35.5371901,37.3057851 Z" id="Path" fill="#A9C9C6" style="mix-blend-mode: multiply;"></path>
                <polygon id="Rectangle" fill="#78A09A" transform="translate(26.038136, 26.064962) rotate(-45.000000) translate(-26.038136, -26.064962) " points="24.7323629 25.073236 27.3439081 25.073236 27.3439081 27.056688 24.7323629 27.056688"></polygon>
            </g>
            <g id="Shadow__x0026__Light" transform="translate(3.636364, 3.636364)" fill="#A9C9C6">
                <path d="M20.7272727,2.24793388 C20.2644628,1.78512397 19.768595,1.37190083 19.2561983,0.991735537 C23.0578512,6.11570248 22.6446281,13.3884298 18,18.0330579 C13.3553719,22.677686 6.08264463,23.107438 0.958677686,19.2892562 C1.33884298,19.8016529 1.75206612,20.2975207 2.21487603,20.7603306 C7.32231405,25.8677686 15.6198347,25.8677686 20.7272727,20.7603306 C25.8347107,15.6363636 25.8347107,7.3553719 20.7272727,2.24793388 Z" id="Path" style="mix-blend-mode: multiply;"></path>
            </g>
            <g id="Outlines" fill="#111416">
                <path d="M24.5950413,5.63636364 C19.3553719,0.396694215 10.8429752,0.396694215 5.61983471,5.63636364 C3.09090909,8.16528926 1.68595041,11.5371901 1.68595041,15.1239669 C1.68595041,18.7107438 3.07438017,22.0826446 5.61983471,24.6115702 C8.14876033,27.1404959 11.5206612,28.5454545 15.107438,28.5454545 C18.6942149,28.5454545 22.0661157,27.1570248 24.5950413,24.6115702 C27.1239669,22.0826446 28.5289256,18.7107438 28.5289256,15.1239669 C28.5289256,11.553719 27.1239669,8.18181818 24.5950413,5.63636364 Z M24.1322314,24.1487603 C21.7190083,26.5619835 18.5123967,27.8842975 15.107438,27.8842975 C11.7024793,27.8842975 8.49586777,26.5619835 6.08264463,24.1487603 C3.66942149,21.7355372 2.34710744,18.5289256 2.34710744,15.1239669 C2.34710744,11.7190083 3.66942149,8.51239669 6.08264463,6.09917355 C11.0578512,1.12396694 19.1570248,1.12396694 24.1322314,6.09917355 C26.5454545,8.51239669 27.8677686,11.7190083 27.8677686,15.1239669 C27.8677686,18.5454545 26.5454545,21.7355372 24.1322314,24.1487603 Z M38.9752066,34.5289256 L29.3057851,24.8595041 C29.2396694,24.7933884 29.1570248,24.7603306 29.0743802,24.7603306 C28.9917355,24.7603306 28.9090909,24.7933884 28.8429752,24.8595041 L28,25.7024793 L26.8760331,24.5785124 C31.6363636,18.661157 31.2727273,9.95041322 25.785124,4.46280992 C22.9421488,1.61983471 19.1404959,0.0495867769 15.107438,0.0495867769 C11.0743802,0.0495867769 7.2892562,1.61983471 4.42975207,4.46280992 C1.58677686,7.30578512 0.0165289256,11.107438 0.0165289256,15.1404959 C0.0165289256,19.1735537 1.58677686,22.9586777 4.42975207,25.8181818 C7.27272727,28.661157 11.0743802,30.231405 15.107438,30.231405 C18.5950413,30.231405 21.8842975,29.0578512 24.5619835,26.9090909 L25.6859504,28.0330579 L24.8429752,28.8760331 C24.7107438,29.0082645 24.7107438,29.2066116 24.8429752,29.338843 L27.3884298,31.8842975 C27.3884298,31.8842975 27.3884298,31.8842975 27.3884298,31.8842975 C27.3884298,31.8842975 27.3884298,31.8842975 27.3884298,31.8842975 L28.3801653,32.8760331 C28.3801653,32.8760331 28.3801653,32.8760331 28.3801653,32.8760331 C28.3801653,32.8760331 28.3801653,32.8760331 28.3801653,32.8760331 L34.5123967,39.0082645 C35.107438,39.6033058 35.9008264,39.9338843 36.7438017,39.9338843 C37.5867769,39.9338843 38.3801653,39.6033058 38.9752066,39.0082645 C39.5702479,38.4132231 39.9008264,37.6198347 39.9008264,36.7768595 C39.8842975,35.9173554 39.5702479,35.1239669 38.9752066,34.5289256 Z M15.107438,29.5702479 C11.2561983,29.5702479 7.63636364,28.0661157 4.90909091,25.338843 C2.18181818,22.6115702 0.67768595,18.9917355 0.67768595,15.1404959 C0.67768595,11.2892562 2.18181818,7.66942149 4.90909091,4.94214876 C7.63636364,2.21487603 11.2561983,0.710743802 15.107438,0.710743802 C18.9586777,0.710743802 22.5785124,2.21487603 25.3057851,4.94214876 C30.9256198,10.5619835 30.9256198,19.7190083 25.3057851,25.3553719 C22.5785124,28.0661157 18.9586777,29.5702479 15.107438,29.5702479 Z M25.0743802,26.4628099 C25.322314,26.2479339 25.553719,26.0330579 25.785124,25.8016529 C26.0165289,25.5702479 26.231405,25.338843 26.446281,25.0909091 L27.5206612,26.1652893 L26.1487603,27.5371901 L25.0743802,26.4628099 Z M25.5371901,29.0909091 L29.0578512,25.5702479 L31.1404959,27.6528926 L27.6198347,31.1735537 L25.5371901,29.0909091 Z M28.0826446,31.6363636 L31.6033058,28.1157025 L32.1322314,28.6446281 L28.6115702,32.1652893 L28.0826446,31.6363636 Z M38.4958678,38.5289256 C38.0330579,38.9917355 37.4049587,39.2561983 36.7438017,39.2561983 C36.0826446,39.2561983 35.4545455,38.9917355 34.9917355,38.5289256 L29.0909091,32.6280992 L32.6115702,29.107438 L38.5123967,35.0082645 C38.9752066,35.4710744 39.2396694,36.0991736 39.2396694,36.7603306 C39.2231405,37.4214876 38.9752066,38.0495868 38.4958678,38.5289256 Z" id="Shape"></path>
            </g>
        </g>
    </g>
</svg>