<?xml version="1.0" encoding="UTF-8"?>
<svg width="40px" height="40px" viewBox="0 0 40 40" version="1.1" xmlns="http://www.w3.org/2000/svg" xmlns:xlink="http://www.w3.org/1999/xlink">
    <!-- Generator: Sketch 58 (84663) - https://sketch.com -->
    <title>Creatividad_40x40</title>
    <desc>Created with Sketch.</desc>
    <g id="Creatividad_40x40" stroke="none" stroke-width="1" fill="none" fill-rule="evenodd">
        <g id="shutterstock_357856169" transform="translate(6.000000, 1.000000)">
            <polygon id="Fill-31" fill="#6ED0C5" points="8.90868988 32.1745696 18.9490497 32.1745696 18.9490497 30.5056096 8.90868988 30.5056096"></polygon>
            <polygon id="Fill-32" fill="#25B9A8" points="8.90868988 33.9082246 18.9490497 33.9082246 18.9490497 32.1745696 8.90868988 32.1745696"></polygon>
            <polygon id="Fill-33" fill="#6ED0C5" points="8.90868988 35.5771845 18.9490497 35.5771845 18.9490497 33.9082246 8.90868988 33.9082246"></polygon>
            <polyline id="Fill-34" fill="#25B9A8" points="18.0037998 35.5771845 17.4309498 37.1947495 10.3961999 37.1947495 9.82334986 35.5771845 18.0037998 35.5771845"></polyline>
            <polyline id="Fill-35" fill="#FF7261" points="13.9307698 8.92768988 15.6016298 11.7690448 12.2580098 11.7690448 13.9307698 8.92768988"></polyline>
            <polyline id="Fill-36" fill="#FF9184" points="13.9135748 15.8689598 13.9135748 30.5056096 10.8314899 30.5056096 10.8314899 14.1369198 13.9135748 15.8689598"></polyline>
            <polyline id="Fill-37" fill="#FFAA9F" points="10.8314899 14.1369198 10.8314899 30.5056096 12.3590898 30.5056096 12.3590898 14.9955298 10.8314899 14.1369198"></polyline>
            <polyline id="Fill-38" fill="#FF7261" points="16.9955648 14.1369198 16.9955648 30.5056096 13.9135748 30.5056096 13.9135748 15.8689598 16.9955648 14.1369198"></polyline>
            <polyline id="Fill-39" fill="#BF5649" points="15.4678698 14.9955298 15.4678698 30.5056096 16.9955648 30.5056096 16.9955648 14.1369198 15.4678698 14.9955298"></polyline>
            <polyline id="Fill-40" fill="#FFFFFF" points="15.6016298 11.7690448 16.9955648 14.1369198 13.9135748 15.7962848 10.8314899 14.1369198 12.2580098 11.7690448 15.6016298 11.7690448"></polyline>
            <polyline id="Fill-41" fill="#C3EDF0" points="16.9955648 14.1369198 15.6016298 11.7690448 13.6920348 11.7690448 15.4845898 14.9504048 16.9955648 14.1369198"></polyline>
            <path d="M27.1619896,13.7685098 C27.1619896,16.5257898 26.3198147,19.0768247 24.8781897,21.2041597 C24.5056947,21.7502197 24.0971947,22.2599897 23.6504097,22.7433497 C21.8993697,25.0996347 18.8841648,26.4305847 18.9490497,30.5056096 L16.9955648,30.5056096 L16.9955648,14.1369198 L15.6016298,11.7690448 L13.9307698,8.92768988 L12.2580098,11.7690448 L10.8314899,14.1369198 L10.8314899,30.5056096 L8.88009488,30.5056096 C8.94687988,26.4305847 5.92777991,25.0996347 4.17303494,22.7433497 C3.72805494,22.2599897 3.32116995,21.7502197 2.94895995,21.2041597 C1.50714497,19.0768247 0.665159979,16.5257898 0.665159979,13.7685098 C0.665159979,6.45664491 6.5942049,0.521804981 13.9153798,0.521804981 C13.9191798,0.521804981 13.9307698,0.525699981 13.9344748,0.525699981 C21.2424447,0.537004981 27.1619896,6.46243991 27.1619896,13.7685098" id="Fill-42" fill="#FFE5A5"></path>
            <path d="M13.9344748,0.525699981 C13.9307698,0.525699981 13.9191798,0.521804981 13.9153798,0.521804981 C9.76853486,0.521804981 6.06932991,2.42721996 3.64008494,5.40727492 C5.92112991,3.54793494 8.83221488,2.43130496 12.0058798,2.43130496 C12.0095848,2.43130496 12.0211748,2.43519996 12.0248798,2.43519996 C19.3328497,2.44659996 25.2524897,8.37193988 25.2524897,15.6780098 C25.2524897,18.4352898 24.4103147,20.9864197 22.9686897,23.1137547 C22.5961947,23.6597197 22.1875997,24.1694897 21.7408147,24.6528497 C20.2970047,26.5959797 17.9947748,27.8431396 17.2677398,30.5056096 L18.9490497,30.5056096 C18.8841648,26.4305847 21.8993697,25.0996347 23.6504097,22.7433497 C24.0971947,22.2599897 24.5056947,21.7502197 24.8781897,21.2041597 C26.3198147,19.0768247 27.1619896,16.5257898 27.1619896,13.7685098 C27.1619896,6.46243991 21.2424447,0.537004981 13.9344748,0.525699981" id="Fill-43" fill="#FFDA7E"></path>
            <path d="M10.8314899,30.8874146 C10.6204949,30.8874146 10.4494949,30.7164146 10.4494949,30.5056096 L10.4494949,14.1369198 C10.4494949,14.0012598 10.5215049,13.8757648 10.6385449,13.8073648 C10.7556799,13.7388698 10.9002699,13.7377298 11.0185448,13.8040398 L14.1007248,15.5359848 C14.2845498,15.6393448 14.3498148,15.8722848 14.2465498,16.0561098 C14.1432848,16.2400298 13.9109148,16.3053898 13.7264248,16.2019348 L11.2133898,14.7896648 L11.2133898,30.5056096 C11.2133898,30.7164146 11.0423898,30.8874146 10.8314899,30.8874146" id="Fill-44" fill="#000000"></path>
            <path d="M16.9955648,30.8874146 C16.7845698,30.8874146 16.6135698,30.7164146 16.6135698,30.5056096 L16.6135698,14.7896648 L14.1007248,16.2019348 C13.9163298,16.3051048 13.6838648,16.2399348 13.5805998,16.0561098 C13.4773348,15.8722848 13.5425998,15.6394398 13.7264248,15.5359848 L16.8085098,13.8040398 C16.9263098,13.7376348 17.0712798,13.7386798 17.1883198,13.8073648 C17.3053598,13.8757648 17.3773698,14.0012598 17.3773698,14.1369198 L17.3773698,30.5056096 C17.3773698,30.7164146 17.2063698,30.8874146 16.9955648,30.8874146" id="Fill-45" fill="#000000"></path>
            <path d="M9.82334986,35.9591795 L8.90868988,35.9591795 C8.69778988,35.9591795 8.52669488,35.7880845 8.52669488,35.5771845 L8.52669488,30.5056096 C8.52669488,30.2946146 8.69778988,30.1236146 8.90868988,30.1236146 C9.11949487,30.1236146 9.29058987,30.2946146 9.29058987,30.5056096 L9.29058987,35.1953795 L9.82334986,35.1953795 C10.0342499,35.1953795 10.2052499,35.3663795 10.2052499,35.5771845 C10.2052499,35.7880845 10.0342499,35.9591795 9.82334986,35.9591795" id="Fill-46" fill="#000000"></path>
            <path d="M18.9490497,35.9591795 L18.0037998,35.9591795 C17.7928998,35.9591795 17.6218998,35.7880845 17.6218998,35.5771845 C17.6218998,35.3663795 17.7928998,35.1953795 18.0037998,35.1953795 L18.5671498,35.1953795 L18.5671498,30.5056096 C18.5671498,30.2946146 18.7382448,30.1236146 18.9490497,30.1236146 C19.1599497,30.1236146 19.3309497,30.2946146 19.3309497,30.5056096 L19.3309497,35.5771845 C19.3309497,35.7880845 19.1599497,35.9591795 18.9490497,35.9591795" id="Fill-47" fill="#000000"></path>
            <path d="M9.25942987,30.1236146 L18.5699998,30.1236146 C18.6558798,27.2867246 20.2006747,25.7720447 21.6968297,24.3047697 C22.2989397,23.7140597 22.8677047,23.1563147 23.3438447,22.5155397 C23.3520147,22.5046147 23.3606597,22.4941647 23.3698747,22.4841897 C23.8139047,22.0038697 24.2040697,21.5147147 24.5625997,20.9889847 C26.0131547,18.8487298 26.7800897,16.3515598 26.7800897,13.7685098 C26.7800897,6.6879699 21.0172947,0.918524976 13.9339048,0.907599976 C13.9182298,0.907599976 13.9004648,0.906079976 13.8826048,0.903704976 C6.8018749,0.921279976 1.04705997,6.6855949 1.04705997,13.7685098 C1.04705997,16.3518448 1.81408996,18.8489198 3.26511995,20.9899347 C3.62431494,21.5168047 4.01333994,22.0059597 4.45404493,22.4847597 C4.46297493,22.4944497 4.47133493,22.5046147 4.47931493,22.5152547 C4.95621493,23.1555547 5.52545492,23.7130147 6.12822991,24.3032497 C7.62685489,25.7707147 9.17440487,27.2857746 9.25942987,30.1236146 Z M18.9527547,30.887499 C18.9518997,30.887499 18.9503797,30.887499 18.9490497,30.887499 L8.88009488,30.887499 C8.77777988,30.887499 8.67964488,30.8464696 8.60782488,30.7733196 C8.53609988,30.7003596 8.49657988,30.6015596 8.49828988,30.4991496 C8.54350988,27.7373096 7.1107199,26.3343497 5.59375992,24.8491197 C5.00133992,24.2687647 4.38877993,23.6690297 3.87862994,22.9874997 C3.41816494,22.4858047 3.01070995,21.9726147 2.63346495,21.4192397 C1.09579497,19.1505447 0.283259984,16.5052698 0.283259984,13.7685098 C0.283259984,6.25362991 6.39859991,0.139809986 13.9153798,0.139809986 C13.9314348,0.139809986 13.9499598,0.141329986 13.9681998,0.143894986 C21.4570497,0.174009985 27.5438896,6.27889991 27.5438896,13.7685098 C27.5438896,16.5049848 26.7313547,19.1502597 25.1942547,21.4183847 C24.8173897,21.9710947 24.4086047,22.4842847 23.9446247,22.9875947 C23.4354247,23.6695047 22.8235297,24.2695247 22.2316797,24.8499747 C20.7269747,26.3257047 19.3052047,27.7199246 19.3301897,30.4467096 C19.3332297,30.4658996 19.3347497,30.4854696 19.3347497,30.5056096 C19.3347497,30.7164146 19.1639397,30.887499 18.9527547,30.887499 L18.9527547,30.887499 Z" id="Fill-48" fill="#000000"></path>
            <path d="M3.34035995,14.5323098 C2.91855995,14.5323098 2.57655996,14.1903098 2.57655996,13.7685098 C2.57655996,10.1536649 4.32902493,6.7231199 7.2643349,4.59169993 C7.60566989,4.34403493 8.08332989,4.41974993 8.33118488,4.76108493 C8.57903988,5.10241992 8.50322988,5.58007992 8.16189489,5.82793491 C5.62111992,7.67273989 4.10425494,10.6412049 4.10425494,13.7685098 C4.10425494,14.1903098 3.76215994,14.5323098 3.34035995,14.5323098" id="Fill-49" fill="#FFFFFF"></path>
            <path d="M9.87037486,4.76288993 C9.57140987,4.76288993 9.28745487,4.58609493 9.16509487,4.29282993 C9.00283487,3.90342494 9.18675487,3.45616494 9.57615987,3.29380995 C9.71780487,3.23481495 9.86049486,3.17857495 10.0049899,3.12556495 C10.4017099,2.98011995 10.8400399,3.18332495 10.9852948,3.57928494 C11.1306448,3.97524494 10.9275349,4.41423993 10.5315749,4.55958993 C10.4078849,4.60499993 10.2854299,4.65316493 10.1641149,4.70379993 C10.0680699,4.74388993 9.96841486,4.76288993 9.87037486,4.76288993" id="Fill-50" fill="#FFFFFF"></path>
            <path d="M15.6020098,12.1510398 C15.4710048,12.1510398 15.3435148,12.0836848 15.2724548,11.9626548 L13.9305798,9.68075487 L12.5870898,11.9628448 C12.4802148,12.1446748 12.2464198,12.2052848 12.0643048,12.0981248 C11.8824748,11.9911548 11.8219598,11.7570748 11.9288348,11.5753398 L13.6015948,8.73388988 C13.6701848,8.61732488 13.7953948,8.54569488 13.9307698,8.54569488 L13.9308648,8.54569488 C14.0661448,8.54569488 14.1913548,8.61741988 14.2599448,8.73407988 L15.9307098,11.5755298 C16.0377748,11.7573598 15.9769748,11.9913448 15.7951448,12.0982198 C15.7343448,12.1339398 15.6677498,12.1510398 15.6020098,12.1510398" id="Fill-51" fill="#000000"></path>
            <path d="M11.3653898,13.9906198 L13.9135748,15.3625148 L16.4651798,13.9888148 L15.3832248,12.1509448 L12.4737548,12.1509448 L11.3653898,13.9906198 Z M13.9135748,16.1781848 C13.8512548,16.1781848 13.7890298,16.1629848 13.7325048,16.1325848 L10.6503249,14.4732198 C10.5583649,14.4236298 10.4907249,14.3386048 10.4631749,14.2378098 C10.4354349,14.1370148 10.4503499,14.0293798 10.5044049,13.9398898 L11.9309248,11.5719198 C11.9999898,11.4572548 12.1240598,11.3871448 12.2580098,11.3871448 L15.6016298,11.3871448 C15.7368148,11.3871448 15.8621198,11.4587748 15.9307098,11.5753398 L17.3246448,13.9432148 C17.3771798,14.0327048 17.3912398,14.1397698 17.3632148,14.2397098 C17.3354748,14.3396498 17.2679298,14.4240098 17.1765398,14.4732198 L14.0946448,16.1325848 C14.0381198,16.1629848 13.9758948,16.1781848 13.9135748,16.1781848 L13.9135748,16.1781848 Z" id="Fill-52" fill="#000000"></path>
            <path d="M13.9135748,30.8874146 C13.7026748,30.8874146 13.5316748,30.7164146 13.5316748,30.5056096 L13.5316748,15.7962848 C13.5316748,15.5853848 13.7026748,15.4143848 13.9135748,15.4143848 C14.1244748,15.4143848 14.2954748,15.5853848 14.2954748,15.7962848 L14.2954748,30.5056096 C14.2954748,30.7164146 14.1244748,30.8874146 13.9135748,30.8874146" id="Fill-53" fill="#000000"></path>
            <path d="M10.6660949,36.8128495 L17.1611498,36.8128495 L17.4634398,35.9591795 L10.3637099,35.9591795 L10.6660949,36.8128495 Z M17.4309498,37.5766495 L10.3961999,37.5766495 C10.2344149,37.5766495 10.0902049,37.4746195 10.0361499,37.3223345 L9.46329987,35.7047695 C9.42197487,35.5879195 9.43983487,35.4581495 9.51146487,35.3567845 C9.58299987,35.2556095 9.69937487,35.1953795 9.82334986,35.1953795 L18.0037998,35.1953795 C18.1278698,35.1953795 18.2441498,35.2556095 18.3155898,35.3567845 C18.3872198,35.4581495 18.4053648,35.5879195 18.3638498,35.7047695 L17.7910948,37.3223345 C17.7369448,37.4746195 17.5926398,37.5766495 17.4309498,37.5766495 L17.4309498,37.5766495 Z" id="Fill-54" fill="#000000"></path>
            <path d="M18.9490497,34.2902196 L8.90868988,34.2902196 C8.69778988,34.2902196 8.52669488,34.1192196 8.52669488,33.9082246 C8.52669488,33.6973246 8.69778988,33.5264196 8.90868988,33.5264196 L18.9490497,33.5264196 C19.1599497,33.5264196 19.3309497,33.6973246 19.3309497,33.9082246 C19.3309497,34.1192196 19.1599497,34.2902196 18.9490497,34.2902196" id="Fill-55" fill="#000000"></path>
            <path d="M18.9490497,32.5564696 L8.90868988,32.5564696 C8.69778988,32.5564696 8.52669488,32.3854696 8.52669488,32.1745696 C8.52669488,31.9635746 8.69778988,31.7926696 8.90868988,31.7926696 L18.9490497,31.7926696 C19.1599497,31.7926696 19.3309497,31.9635746 19.3309497,32.1745696 C19.3309497,32.3854696 19.1599497,32.5564696 18.9490497,32.5564696" id="Fill-56" fill="#000000"></path>
        </g>
    </g>
</svg>