<?xml version="1.0" encoding="UTF-8"?>
<svg width="40px" height="40px" viewBox="0 0 40 40" version="1.1" xmlns="http://www.w3.org/2000/svg" xmlns:xlink="http://www.w3.org/1999/xlink">
    <!-- Generator: Sketch 58 (84663) - https://sketch.com -->
    <title>Equipo_40x40</title>
    <desc>Created with Sketch.</desc>
    <g id="Equipo_40x40" stroke="none" stroke-width="1" fill="none" fill-rule="evenodd">
        <g id="shutterstock_360428567">
            <path d="M11.572439,28.0336175 L11.563639,28.0336175 L11.563639,36.5654367 C11.563639,37.3155267 10.9544591,37.9222866 10.2070091,37.9222866 C9.45680918,37.9222866 8.84773923,37.3155267 8.84773923,36.5654367 C8.84773923,37.3155267 8.24075929,37.9222866 7.49088935,37.9222866 C6.74090942,37.9222866 6.13425947,37.3155267 6.13425947,36.5654367 C6.13425947,37.3155267 5.52727952,37.9222866 4.77718959,37.9222866 C4.02720965,37.9222866 3.4204497,37.3155267 3.4204497,36.5654367 C3.4204497,37.3155267 2.81115976,37.9222866 2.06359982,37.9222866 C1.31350989,37.9222866 0.706749939,37.3155267 0.706749939,36.5654367 L0.706749939,32.3859871 C0.706749939,32.3837871 0.706749939,28.1609975 0.706749939,28.1585775 C0.749869935,27.7994275 0.786169932,26.4744776 1.1020899,25.6565177 C1.37048988,24.9586777 2.44078979,24.2017678 3.01113974,24.2017678 L3.01113974,11.5517689 L11.547689,11.5517689 L11.547689,16.5519285 C11.547689,16.6244185 11.552199,16.6948185 11.563639,16.7630185 L11.563639,24.1610678 C11.563639,24.1610678 13.4749988,24.8653978 14.1454488,24.9656077 C14.7430787,25.0585577 16.5658886,24.9656077 16.5658886,24.9656077 C16.9886185,24.9656077 17.3704285,25.1383077 17.6477385,25.4155077 C17.9249384,25.6925977 18.0976384,26.0767177 18.0976384,26.4994476 C18.0976384,27.3472175 17.4114585,28.0336175 16.5658886,28.0336175 L11.572439,28.0336175" id="Fill-22" fill="#FFD7BA"></path>
            <path d="M28.0363576,7.20181929 L28.0363576,11.5540789 L23.034218,11.5540789 L23.034218,11.5493489 L15.4182587,11.5493489 C15.4182587,11.5493489 14.7137087,13.4631287 14.6134987,14.1313787 C14.5204387,14.7291186 14.6134987,16.5519285 14.6134987,16.5519285 C14.6134987,16.9744384 14.4407987,17.3585584 14.1634888,17.6358684 C13.8862888,17.9130684 13.5021688,18.0836783 13.0795489,18.0836783 C12.3043789,18.0836783 11.665719,17.5083784 11.563639,16.7630185 L11.563639,11.5517689 L11.547689,11.5517689 L11.547689,11.5493489 L3.01366974,11.5493489 C2.2635798,11.5493489 1.65681986,10.942589 1.65681986,10.192499 C1.65681986,9.44262909 2.2635798,8.83355915 3.01366974,8.83355915 C2.2635798,8.83355915 1.65681986,8.2266892 1.65681986,7.47670927 C1.65681986,6.72914933 2.2635798,6.11974938 3.01366974,6.11974938 C2.2635798,6.11974938 1.65681986,5.51298944 1.65681986,4.7628995 C1.65681986,4.01324957 2.2635798,3.40626962 3.01366974,3.40626962 C2.2635798,3.40626962 1.65681986,2.79928967 1.65681986,2.04941974 C1.65681986,1.2994398 2.2635798,0.692569853 3.01366974,0.692569853 L7.19311938,0.692569853 C7.19762938,0.692569853 11.418329,0.692569853 11.420419,0.692569853 C11.779459,0.738109849 13.1068289,0.771989846 13.9248988,1.08812982 C14.6204287,1.3563098 15.3794287,2.4266097 15.3794287,2.99706965 L28.0385576,2.99706965 C28.0363576,3.00608965 28.0363576,3.01301965 28.0363576,3.02214965 L28.0363576,7.20181929" id="Fill-23" fill="#FFAD71"></path>
            <path d="M38.8932466,7.20181929 C38.8932466,7.20390929 38.8932466,11.4246089 38.8932466,11.4288989 C38.8503466,11.7881589 38.8138266,13.1131088 38.4976867,13.9311787 C38.2295067,14.6291286 37.1612968,15.3859286 36.5886368,15.3859286 L36.5886368,28.0336175 L28.0547276,28.0360375 L28.0547276,23.0358779 C28.0547276,22.9652579 28.0499976,22.8948579 28.0385576,22.8267679 L28.0363576,15.4267386 C28.0363576,15.4267386 26.1249977,14.7221886 25.4545478,14.6197786 C24.8566978,14.5291387 23.034218,14.6197786 23.034218,14.6197786 C22.611378,14.6197786 22.2297881,14.4470787 21.9522581,14.1721887 C21.6750581,13.8925687 21.5021381,13.5086687 21.5021381,13.0859388 C21.5021381,12.2403689 22.1887581,11.5540789 23.034218,11.5540789 L28.0363576,11.5540789 L28.0363576,3.02214965 C28.0363576,3.01301965 28.0363576,3.00608965 28.0385576,2.99706965 C28.0499976,2.25863972 28.6547775,1.66309977 29.3956275,1.66309977 C30.1430774,1.66309977 30.7524773,2.27205972 30.7524773,3.02214965 C30.7524773,2.27205972 31.3592373,1.66309977 32.1093272,1.66309977 C32.8593072,1.66309977 33.4659571,2.27205972 33.4659571,3.02214965 C33.4659571,2.27205972 34.072937,1.66309977 34.822807,1.66309977 C35.5730069,1.66309977 36.1796569,2.27205972 36.1796569,3.02214965 C36.1796569,2.27205972 36.7886168,1.66309977 37.5366167,1.66309977 C38.2864867,1.66309977 38.8932466,2.27205972 38.8932466,3.02214965 L38.8932466,7.20181929" id="Fill-24" fill="#D18752"></path>
            <path d="M38.8932466,3.02214965 L38.8932466,7.20181929 C38.8932466,7.20390929 38.8932466,11.4246089 38.8932466,11.4288989 C38.8503466,11.7881589 38.8138266,13.1131088 38.4976867,13.9311787 C38.2295067,14.6291286 37.1612968,15.3859286 36.5886368,15.3859286 L36.5886368,28.0336175 L28.0547276,28.0360375 L28.0547276,25.8242677 L34.377527,25.8226177 L34.377527,13.1748188 C34.950187,13.1748188 36.0183969,12.4180188 36.2865769,11.7201789 C36.6027168,10.901999 36.6392368,9.57715908 36.6822468,9.21789911 C36.6822468,9.21349911 36.6822468,4.99279948 36.6822468,4.99070948 L36.6822468,1.96757974 C36.9156668,1.77738976 37.2128868,1.66309977 37.5366167,1.66309977 C38.2864867,1.66309977 38.8932466,2.27205972 38.8932466,3.02214965" id="Fill-25" fill="#AE7144"></path>
            <path d="M3.02015974,0.692569853 L7.20004938,0.692569853 C7.20213938,0.692569853 11.422619,0.692569853 11.427129,0.692569853 C11.786169,0.73546985 13.1113389,0.771989846 13.9295188,1.08812982 C14.6273587,1.3563098 15.3839387,2.4244097 15.3839387,2.99706965 L28.0318476,2.99706965 L28.0339376,11.5309789 L25.8224978,11.5309789 L25.8207378,5.20817946 L13.1728289,5.20817946 C13.1728289,4.63551951 12.4162489,3.5673096 11.718409,3.29912963 C10.9003391,2.98298965 9.57516917,2.94657966 9.2161292,2.90356966 C9.2115092,2.90356966 4.99113957,2.90356966 4.98893957,2.90356966 L1.96558983,2.90356966 C1.77561985,2.67014968 1.66110986,2.37281971 1.66110986,2.04919974 C1.66110986,1.2992198 2.2702898,0.692569853 3.02015974,0.692569853" id="Fill-26" fill="#E8965B"></path>
            <path d="M0.706749939,36.5645567 L0.706749939,32.3846671 C0.706749939,32.3825771 0.706749939,28.1620975 0.706749939,28.1572575 C0.749649935,27.7983275 0.786169932,26.4731576 1.1023099,25.6551977 C1.37048988,24.9573577 2.43869979,24.2007778 3.01124974,24.2007778 L3.01124974,11.5528689 L11.545269,11.5506689 L11.545269,13.7622187 L5.22235955,13.7638687 L5.22235955,26.4117776 C4.6498096,26.4117776 3.58159969,27.1683576 3.31341971,27.8663075 C2.99727974,28.6841574 2.96075974,30.0092173 2.91774975,30.3683673 C2.91774975,30.3730973 2.91774975,34.5935769 2.91774975,34.5957769 L2.91774975,37.6191267 C2.68443977,37.8092066 2.38710979,37.9236066 2.06337982,37.9236066 C1.31350989,37.9236066 0.706749939,37.3143167 0.706749939,36.5645567" id="Fill-27" fill="#FFC398"></path>
            <path d="M36.5864368,28.0381275 C37.3364168,28.0381275 37.9431767,28.6448874 37.9431767,29.3949774 C37.9431767,30.1451773 37.3364168,30.7518272 36.5864368,30.7518272 C37.3364168,30.7518272 37.9431767,31.3608972 37.9431767,32.1086771 C37.9431767,32.8586571 37.3364168,33.467837 36.5864368,33.467837 C37.3364168,33.467837 37.9431767,34.074487 37.9431767,34.8224869 C37.9431767,35.5723568 37.3364168,36.1815368 36.5864368,36.1815368 C37.3364168,36.1815368 37.9431767,36.7881867 37.9431767,37.5383867 C37.9431767,38.2884766 37.3364168,38.8952365 36.5864368,38.8952365 L32.4066572,38.8952365 C32.4025872,38.8952365 28.1818876,38.8952365 28.1797976,38.8952365 C27.8204276,38.8494765 26.4955877,38.8154865 25.6775178,38.4996766 C24.9795678,38.2313866 24.2204579,37.1608667 24.2204579,36.5904067 L11.572439,36.5904067 L11.572439,28.0381275 L24.1819579,28.0381275 C24.1819579,28.0381275 24.8865078,26.1246776 24.9886978,25.4565377 C25.0795578,24.8562678 24.9886978,23.0358779 24.9886978,23.0358779 C24.9886978,22.610948 25.1591978,22.229138 25.4361778,21.951718 C25.7134878,21.674408 26.0978277,21.504128 26.5206677,21.504128 C27.2977076,21.504128 27.9385676,22.079098 28.0385576,22.8267679 L28.0385576,28.0360375 L28.0547276,28.0360375 L28.0547276,28.0381275 L36.5864368,28.0381275" id="Fill-28" fill="#875835"></path>
            <path d="M36.5854468,38.8740065 L32.4056672,38.8740065 C32.4034672,38.8740065 28.1829876,38.8740065 28.1782576,38.8740065 C27.8191076,38.8313265 26.4940477,38.7945865 25.6761978,38.4785566 C24.9782478,38.2102666 24.2216679,37.1423867 24.2216679,36.5697267 L11.573759,36.5697267 L11.571559,28.0360375 L13.7831088,28.0360375 L13.7847588,34.3586169 L26.4327777,34.3586169 C26.4327777,34.9312769 27.1893576,35.9991568 27.8871976,36.2674468 C28.7050475,36.5834767 30.0302174,36.6202167 30.3893674,36.6630067 C30.3940974,36.6630067 34.614577,36.6630067 34.616667,36.6630067 L37.6400167,36.6630067 C37.8299867,36.8964267 37.9443867,37.1937567 37.9443867,37.5173767 C37.9443867,38.2673566 37.3350968,38.8740065 36.5854468,38.8740065" id="Fill-29" fill="#71492C"></path>
            <path d="M9.28993919,36.5654367 C9.28993919,37.0697867 9.70122916,37.4799767 10.2070091,37.4799767 C10.7111391,37.4799767 11.121439,37.0697867 11.121439,36.5654367 L11.121439,28.0336175 C11.121439,27.7894175 11.319329,27.5914175 11.563639,27.5914175 L16.5658886,27.5914175 C17.1667085,27.5914175 17.6554385,27.1014776 17.6554385,26.4994476 C17.6554385,26.2087176 17.5416985,25.9348177 17.3351185,25.7283477 C17.1307385,25.5240777 16.8615685,25.4104477 16.5760086,25.4078077 C16.4673286,25.4133077 15.7188886,25.4490577 15.0385387,25.4490577 C14.5932587,25.4490577 14.2788788,25.4338777 14.0773588,25.4024177 C13.3846888,25.2990177 11.610719,24.6496878 11.410739,24.5758778 C11.236939,24.5118578 11.121439,24.3463078 11.121439,24.1610678 L11.121439,11.9939689 L3.4533397,11.9939689 L3.4533397,24.2017678 C3.4533397,24.4460778 3.25533972,24.6440778 3.01113974,24.6440778 C2.64747977,24.6440778 1.72666985,25.2644777 1.51480987,25.8151377 C1.28567989,26.4085876 1.21384989,27.3596475 1.1752399,27.8705975 C1.1653399,28.0003975 1.1571999,28.1074275 1.1489499,28.1835475 L1.1489499,36.5654367 C1.1489499,37.0697867 1.55935986,37.4799767 2.06359982,37.4799767 C2.56794978,37.4799767 2.97824974,37.0697867 2.97824974,36.5654367 C2.97824974,36.3211268 3.17624972,36.1231268 3.4204497,36.1231268 C3.66464968,36.1231268 3.86264967,36.3211268 3.86264967,36.5654367 C3.86264967,37.0697867 4.27294963,37.4799767 4.77718959,37.4799767 C5.28164954,37.4799767 5.69205951,37.0697867 5.69205951,36.5654367 C5.69205951,36.3211268 5.88994949,36.1231268 6.13425947,36.1231268 C6.37834945,36.1231268 6.57645943,36.3211268 6.57645943,36.5654367 C6.57645943,37.0697867 6.98664939,37.4799767 7.49088935,37.4799767 C7.99512931,37.4799767 8.40553927,37.0697867 8.40553927,36.5654367 C8.40553927,36.3211268 8.60353925,36.1231268 8.84773923,36.1231268 C9.09193921,36.1231268 9.28993919,36.3211268 9.28993919,36.5654367 Z M10.2070091,38.3643766 C9.66514916,38.3643766 9.1785092,38.1243566 8.84806923,37.7451866 C8.51795926,38.1243566 8.0319793,38.3643766 7.49088935,38.3643766 C6.9501294,38.3643766 6.46414944,38.1245766 6.13425947,37.7456266 C5.8040395,38.1245766 5.31805954,38.3643766 4.77718959,38.3643766 C4.23631963,38.3643766 3.75055967,38.1245766 3.4204497,37.7456266 C3.09033973,38.1245766 2.60446977,38.3643766 2.06359982,38.3643766 C1.07150991,38.3643766 0.264549977,37.5573067 0.264549977,36.5654367 L0.264549977,28.1585775 C0.264549977,28.1409775 0.265649977,28.1234875 0.267739977,28.1059975 C0.275879976,28.0381275 0.283579975,27.9338475 0.293259975,27.8040475 C0.338249971,27.2085076 0.413599964,26.2119076 0.68958994,25.4971277 C0.952709917,24.8131478 1.82819984,24.0730678 2.56893978,23.8366778 L2.56893978,11.5517689 C2.56893978,11.3075689 2.76682976,11.109569 3.01113974,11.109569 L11.547689,11.109569 C11.791779,11.109569 12.005839,11.3075689 12.005839,11.5517689 L12.005839,23.8508678 C12.6514289,24.0812078 13.7744188,24.4630178 14.2106788,24.5282478 C14.3192488,24.5450778 14.5481587,24.5646578 15.0385387,24.5646578 C15.7357186,24.5646578 16.5353086,24.5242878 16.5433386,24.5238478 C16.5509286,24.5235178 16.5582986,24.5232978 16.5658886,24.5232978 C17.0914685,24.5232978 17.5866885,24.7291078 17.9603584,25.1028877 C18.3340284,25.4762277 18.5398384,25.9722177 18.5398384,26.4994476 C18.5398384,27.5892175 17.6543385,28.4758174 16.5658886,28.4758174 L12.005839,28.4758174 L12.005839,36.5654367 C12.005839,37.5573067 11.198769,38.3643766 10.2070091,38.3643766 L10.2070091,38.3643766 Z" id="Fill-30" fill="#000000"></path>
            <path d="M24.5613479,14.1373187 C25.0060778,14.1373187 25.3199078,14.1521687 25.5208778,14.1825287 C26.2159677,14.2886787 27.9892776,14.9381186 28.1892576,15.0118186 C28.3631675,15.0758386 28.4785575,15.2412786 28.4785575,15.4266286 L28.4807575,27.5935075 L36.1464369,27.5916375 L36.1464369,15.3859286 C36.1464369,15.1417286 36.3444368,14.9436186 36.5886368,14.9436186 C36.9522968,14.9436186 37.8732167,14.3233287 38.0848567,13.7726687 C38.3145367,13.1781188 38.3864767,12.2261789 38.4250867,11.7147889 C38.4347667,11.5860889 38.4430167,11.4796089 38.4510467,11.4041489 L38.4510467,3.02214965 C38.4510467,2.5166997 38.0407467,2.10529973 37.5366167,2.10529973 C37.0321568,2.10529973 36.6219668,2.5166997 36.6219668,3.02214965 C36.6219668,3.26634963 36.4239668,3.46434961 36.1796569,3.46434961 C35.9355669,3.46434961 35.7375669,3.26634963 35.7375669,3.02214965 C35.7375669,2.5166997 35.3272669,2.10529973 34.822807,2.10529973 C34.318457,2.10529973 33.9082671,2.5166997 33.9082671,3.02214965 C33.9082671,3.26634963 33.7101571,3.46434961 33.4659571,3.46434961 C33.2218671,3.46434961 33.0238671,3.26634963 33.0238671,3.02214965 C33.0238671,2.5166997 32.6134572,2.10529973 32.1093272,2.10529973 C31.6048673,2.10529973 31.1946773,2.5166997 31.1946773,3.02214965 C31.1946773,3.26634963 30.9966773,3.46434961 30.7524773,3.46434961 C30.5082774,3.46434961 30.3102774,3.26634963 30.3102774,3.02214965 C30.3102774,2.5166997 29.8999774,2.10529973 29.3956275,2.10529973 C28.8988675,2.10529973 28.4882375,2.5084497 28.4807575,3.00388965 C28.4805375,3.01620965 28.4798775,3.02852965 28.4785575,3.04073965 L28.4785575,11.5540789 C28.4785575,11.7983889 28.2806675,11.9962789 28.0363576,11.9962789 L23.034218,11.9962789 C22.4333981,11.9962789 21.9443381,12.4851188 21.9443381,13.0859388 C21.9443381,13.3762288 22.0587381,13.6513387 22.2663081,13.8608887 C22.4715681,14.0641687 22.745138,14.1775787 23.034218,14.1775787 C23.045768,14.1764787 23.8416179,14.1373187 24.5613479,14.1373187 Z M28.0549476,28.4781274 C28.0547276,28.4781274 28.0547276,28.4781274 28.0547276,28.4781274 L28.0385576,28.4781274 C27.7943576,28.4781274 27.5963576,28.2802375 27.5963576,28.0360375 L27.5941576,15.7368285 C26.9485677,15.5061586 25.8246978,15.1236886 25.3878878,15.0569186 C25.2820678,15.0409686 25.0524978,15.0217186 24.5613479,15.0217186 C23.8640579,15.0217186 23.064358,15.0610986 23.056438,15.0615386 C23.055778,15.0615386 23.054898,15.0615386 23.054128,15.0615386 C22.509188,15.0615386 22.0153981,14.8570486 21.6411781,14.4863487 C21.2651982,14.1073987 21.0599382,13.6109687 21.0599382,13.0859388 C21.0599382,11.9973789 21.9456581,11.1118789 23.034218,11.1118789 L27.5941576,11.1118789 L27.5941576,3.02214965 C27.5941576,3.01015965 27.5941576,2.98870965 27.5970176,2.96076966 C27.6278176,1.99881974 28.4285075,1.22089981 29.3956275,1.22089981 C29.9364974,1.22089981 30.4222574,1.46113979 30.7524773,1.84063975 C31.0825873,1.46113979 31.5684573,1.22089981 32.1093272,1.22089981 C32.6501972,1.22089981 33.1360671,1.46113979 33.4659571,1.84063975 C33.7960671,1.46113979 34.281937,1.22089981 34.822807,1.22089981 C35.3636769,1.22089981 35.8495469,1.46113979 36.1796569,1.84063975 C36.5098768,1.46113979 36.9956368,1.22089981 37.5366167,1.22089981 C38.5285967,1.22089981 39.3354466,2.02884974 39.3354466,3.02214965 L39.3354466,11.4288989 C39.3354466,11.4464989 39.3343466,11.4639889 39.3321466,11.4813689 C39.3242266,11.5487989 39.3166366,11.6525289 39.3069566,11.7813389 C39.2620766,12.3774288 39.1866166,13.3750188 38.9100766,14.0905687 C38.6472866,14.7747686 37.7716867,15.5147386 37.0309468,15.7510185 L37.0309468,28.0336175 C37.0309468,28.2778175 36.8329468,28.4758174 36.5888568,28.4758174 L28.0549476,28.4781274 L28.0549476,28.4781274 Z" id="Fill-31" fill="#000000"></path>
            <path d="M13.0795489,18.5258783 C12.098569,18.5258783 11.258499,17.7939384 11.125509,16.8230785 C11.112639,16.7476185 11.105379,16.6546685 11.105379,16.5519285 L11.105379,11.9915489 L3.01366974,11.9915489 C2.02157982,11.9915489 1.21461989,11.1845889 1.21461989,10.192499 C1.21461989,9.65074908 1.45463987,9.16421912 1.83391984,8.83366915 C1.45463987,8.50366918 1.21461989,8.01768922 1.21461989,7.47670927 C1.21461989,6.93572931 1.45452987,6.44985935 1.83347984,6.11974938 C1.45452987,5.78974941 1.21461989,5.30376945 1.21461989,4.7628995 C1.21461989,4.22213955 1.45452987,3.73626959 1.83347984,3.40626962 C1.45452987,3.07615965 1.21461989,2.59028969 1.21461989,2.04941974 C1.21461989,1.05732982 2.02157982,0.250369892 3.01366974,0.250369892 L11.420419,0.250369892 C11.439009,0.250369892 11.457709,0.251469892 11.476189,0.253889891 C11.547029,0.262799891 11.658019,0.27104989 11.796399,0.281609889 C12.3878689,0.326929885 13.3778688,0.402609878 14.0842888,0.675519855 C14.7683787,0.939299832 15.5079087,1.81467976 15.7444086,2.55486969 L28.0273376,2.55486969 C28.2715375,2.55486969 28.4695375,2.75286967 28.4695375,2.99706965 C28.4695375,3.24126963 28.2715375,3.43926962 28.0273376,3.43926962 L15.3794287,3.43926962 C15.1352287,3.43926962 14.9371187,3.24126963 14.9371187,2.99706965 C14.9371187,2.63395968 14.3166088,1.71314976 13.7658388,1.50073978 C13.1805289,1.2745798 12.2361789,1.20230981 11.728859,1.16347981 C11.589599,1.15280981 11.474759,1.14378981 11.394349,1.13476981 L3.01366974,1.13476981 C2.50942978,1.13476981 2.09901982,1.54506978 2.09901982,2.04941974 C2.09901982,2.55365969 2.50942978,2.96406966 3.01366974,2.96406966 C3.25786972,2.96406966 3.4558697,3.16206964 3.4558697,3.40626962 C3.4558697,3.6504696 3.25786972,3.84846958 3.01366974,3.84846958 C2.50942978,3.84846958 2.09901982,4.25876954 2.09901982,4.7628995 C2.09901982,5.26724946 2.50942978,5.67754942 3.01366974,5.67754942 C3.25786972,5.67754942 3.4558697,5.8755494 3.4558697,6.11974938 C3.4558697,6.36394936 3.25786972,6.56194934 3.01366974,6.56194934 C2.50942978,6.56194934 2.09901982,6.97235931 2.09901982,7.47670927 C2.09901982,7.98094922 2.50942978,8.39124919 3.01366974,8.39124919 C3.25786972,8.39124919 3.4558697,8.58924917 3.4558697,8.83355915 C3.4558697,9.07764913 3.25786972,9.27575911 3.01366974,9.27575911 C2.50942978,9.27575911 2.09901982,9.68693907 2.09901982,10.192499 C2.09901982,10.696739 2.50942978,11.107149 3.01366974,11.107149 L11.547689,11.107149 C11.791779,11.107149 11.989889,11.3051489 11.989889,11.5493489 L11.989889,16.5519285 C11.989889,16.6050585 11.993079,16.6502685 11.999789,16.6898685 C12.075029,17.2379984 12.5383489,17.6414784 13.0795489,17.6414784 C13.3717088,17.6414784 13.6454988,17.5283984 13.8508688,17.3231384 C14.0550288,17.1188684 14.1686588,16.8490385 14.1712988,16.5620485 C14.1590888,16.3199385 14.0812088,14.6763186 14.1765788,14.0633987 C14.2800888,13.3728188 14.9295287,11.5967589 15.0032287,11.3965589 C15.0672487,11.2226489 15.2330187,11.107149 15.4182587,11.107149 L28.0273376,11.107149 C28.2715375,11.107149 28.4695375,11.3051489 28.4695375,11.5493489 C28.4695375,11.7935489 28.2715375,11.9915489 28.0273376,11.9915489 L15.7285686,11.9915489 C15.4981187,12.6377988 15.1160887,13.7618887 15.0508587,14.1969387 C14.9797987,14.6527786 15.0299587,16.0349285 15.0551487,16.5292685 C15.0554787,16.5368585 15.0556987,16.5443385 15.0556987,16.5519285 C15.0556987,17.0788284 14.8499987,17.5748184 14.4762187,17.9484884 C14.1039788,18.3208383 13.6079888,18.5258783 13.0795489,18.5258783" id="Fill-32" fill="#000000"></path>
            <path d="M36.5864368,39.3374365 L28.1797976,39.3374365 C28.1609876,39.3374365 28.1423976,39.3363365 28.1238076,39.3340265 C28.0527476,39.3248965 27.9414276,39.3165365 27.8024976,39.3058665 C27.2120176,39.2605465 26.2238877,39.1847565 25.5180178,38.9122865 C24.8331578,38.6488366 24.0921979,37.7734566 23.8554779,37.0326067 L11.572439,37.0326067 C11.328239,37.0326067 11.130239,36.8346067 11.130239,36.5904067 C11.130239,36.3463168 11.328239,36.1482068 11.572439,36.1482068 L24.2204579,36.1482068 C24.4645479,36.1482068 24.6625479,36.3463168 24.6625479,36.5904067 C24.6625479,36.9538467 25.2841578,37.8747666 25.8361378,38.0867366 C26.4212277,38.3128966 27.3638176,38.3851666 27.8701476,38.4239966 C28.0098476,38.4348866 28.1254576,38.4439066 28.2058676,38.4530366 L36.5864368,38.4530366 C37.0906768,38.4530366 37.5009767,38.0427366 37.5009767,37.5383867 C37.5009767,37.0340367 37.0906768,36.6236267 36.5864368,36.6236267 C36.3423468,36.6236267 36.1443469,36.4256268 36.1443469,36.1815368 C36.1443469,35.9372268 36.3423468,35.7392268 36.5864368,35.7392268 C37.0906768,35.7392268 37.5009767,35.3279369 37.5009767,34.8224869 C37.5009767,34.3193469 37.0906768,33.909927 36.5864368,33.909927 C36.3423468,33.909927 36.1443469,33.711927 36.1443469,33.467837 C36.1443469,33.223527 36.3423468,33.0255271 36.5864368,33.0255271 C37.0906768,33.0255271 37.5009767,32.6142371 37.5009767,32.1086771 C37.5009767,31.6043272 37.0906768,31.1941372 36.5864368,31.1941372 C36.3423468,31.1941372 36.1443469,30.9960272 36.1443469,30.7518272 C36.1443469,30.5077373 36.3423468,30.3096273 36.5864368,30.3096273 C37.0906768,30.3096273 37.5009767,29.8993273 37.5009767,29.3949774 C37.5009767,28.8905174 37.0906768,28.4803274 36.5864368,28.4803274 L28.0547276,28.4803274 C27.8105276,28.4803274 27.6125276,28.2823275 27.6125276,28.0381275 L27.6125276,23.0358779 C27.6125276,22.9854979 27.6090076,22.9398479 27.6024076,22.9002479 C27.5288176,22.350028 27.0645077,21.946328 26.5206677,21.946328 C26.2280677,21.946328 25.9539477,22.059188 25.7489078,22.264338 C25.5439778,22.469708 25.4307878,22.7438279 25.4307878,23.0358779 C25.4398078,23.2047279 25.5206578,24.8966378 25.4259478,25.5227577 C25.3199078,26.2155376 24.6705779,27.9909375 24.5968779,28.1910275 C24.5327479,28.3648275 24.3673079,28.4803274 24.1819579,28.4803274 L11.572439,28.4803274 C11.328239,28.4803274 11.130239,28.2823275 11.130239,28.0381275 C11.130239,27.7939275 11.328239,27.5959275 11.572439,27.5959275 L23.8717579,27.5959275 C24.1024279,26.9494576 24.4848979,25.8251477 24.5515579,25.3897677 C24.6204179,24.9342578 24.5716879,23.5519979 24.5470479,23.0578779 C24.5463879,22.507878 24.7513179,22.011778 25.1234478,21.639318 C25.4955778,21.2667481 25.9917877,21.0619281 26.5206677,21.0619281 C27.5059376,21.0619281 28.3468875,21.795408 28.4769075,22.7682479 C28.4893375,22.8415079 28.4969275,22.9365479 28.4969275,23.0358779 L28.4969275,27.5959275 L36.5864368,27.5959275 C37.5785267,27.5959275 38.3853767,28.4031075 38.3853767,29.3949774 C38.3853767,29.9358473 38.1454667,30.4217173 37.7665167,30.7518272 C38.1454667,31.0819372 38.3853767,31.5678072 38.3853767,32.1086771 C38.3853767,32.6502071 38.1454667,33.136737 37.7665167,33.467397 C38.1454667,33.796847 38.3853767,34.2821669 38.3853767,34.8224869 C38.3853767,35.3642368 38.1454667,35.8506568 37.7660767,36.1813168 C38.1454667,36.5112067 38.3853767,36.9972967 38.3853767,37.5383867 C38.3853767,38.5302566 37.5785267,39.3374365 36.5864368,39.3374365" id="Fill-33" fill="#000000"></path>
        </g>
    </g>
</svg>