<?xml version="1.0" encoding="UTF-8"?>
<svg width="40px" height="40px" viewBox="0 0 40 40" version="1.1" xmlns="http://www.w3.org/2000/svg" xmlns:xlink="http://www.w3.org/1999/xlink">
    <!-- Generator: Sketch 58 (84663) - https://sketch.com -->
    <title>Estrategia_40x40</title>
    <desc>Created with Sketch.</desc>
    <g id="Estrategia_40x40" stroke="none" stroke-width="1" fill="none" fill-rule="evenodd">
        <g id="shutterstock_386983390" transform="translate(6.000000, 0.000000)">
            <path d="M10.4206709,1.15339173 C15.1878065,-1.93558401 31.4103411,6.0397673 23.3644138,23.5403258 L23.3620378,23.5403258 C23.3644138,23.4054218 23.3644138,23.2661178 23.3644138,23.1245258 C23.3644138,14.8552545 17.5756863,5.31015937 13.5206467,5.16425538 C12.9789187,5.14436738 12.4551427,5.15536738 11.9531028,5.21731937 L10.4206709,1.15339173" id="Fill-21" fill="#94CD85"></path>
            <path d="M14.6262786,2.95316757 C14.0844626,2.93327957 13.5605987,2.94427957 13.0586467,3.00631957 L12.1370228,0.561767778 C11.4765828,0.65249577 10.8919989,0.848119753 10.4206709,1.15339173 L11.9531028,5.21731937 C12.4551427,5.15536738 12.9789187,5.14436738 13.5206467,5.16425538 C17.5756863,5.31015937 23.3644138,14.8552545 23.3644138,23.1245258 C23.3644138,23.2661178 23.3644138,23.4054218 23.3620378,23.5403258 L23.3644138,23.5403258 C23.8042378,22.5833259 24.1675897,21.6568619 24.4681977,20.75715 C24.3961257,12.5243987 18.6557982,3.09827956 14.6262786,2.95316757" id="Fill-22" fill="#85B977"></path>
            <path d="M11.9531028,5.21731937 C12.4551427,5.15523354 12.9789187,5.14436738 13.5206467,5.16425538 C17.5756863,5.31015937 23.3644138,14.8552545 23.3644138,23.1245258 C23.3644138,23.2661178 23.3644138,23.4054218 23.3620378,23.5403258 C23.3354618,29.4174053 22.6965819,30.1622372 22.3825979,30.1735012 C22.3405339,30.1558132 22.2986459,30.1445492 22.2543819,30.1360132 C22.2256059,30.1182372 22.2101179,30.1005492 22.2101179,30.1005492 L8.4264151,30.1005492 C8.4264151,30.1005492 7.2082312,28.6279573 7.2082312,27.6018774 C6.50299926,24.7167097 11.9507268,16.6926064 11.9507268,16.6926064 C11.9507268,16.6926064 11.9421028,16.6947184 11.9243268,16.6992944 C11.7010708,16.7523584 10.060575,17.1414943 8.3800391,17.5373183 C6.57357526,17.9639423 4.72284742,18.3975182 4.54605543,18.4350942 C4.32948745,18.4790942 4.10385547,18.5011822 3.87391149,18.5011822 C2.03207165,18.5011822 0.53959178,17.0087024 0.53959178,15.1671265 C0.53959178,14.2893266 0.88252775,13.4910787 1.4374557,12.8961987 L1.4374557,12.8939987 C6.31036728,9.75213498 7.55081517,7.63397516 9.75090298,6.0397673 C10.4185589,5.55787934 11.1569669,5.31904737 11.9531028,5.21731937" id="Fill-23" fill="#B2E7A4"></path>
            <path d="M21.235166,21.304686 C21.070254,21.304686 20.927518,21.181838 20.906574,21.014022 C20.88431,20.836702 20.859758,20.658414 20.832566,20.4796861 C20.805022,20.2984941 20.929542,20.1294461 21.110646,20.1019021 C21.290518,20.0743581 21.460886,20.1987021 21.488518,20.3798941 C21.516502,20.564694 21.542022,20.74879 21.564726,20.932006 C21.587342,21.113814 21.458422,21.279518 21.276702,21.302134 C21.262622,21.303806 21.248806,21.304686 21.235166,21.304686" id="Fill-24" fill="#FFFFFF"></path>
            <path d="M20.894254,19.3342782 C20.741838,19.3342782 20.604734,19.2287662 20.57059,19.0738862 C20.0501581,16.7134624 19.1422622,14.3521586 17.9449343,12.2451748 C16.5719584,9.82948697 15.3165505,8.63911108 14.6903426,8.14472712 C14.5465506,8.03111913 14.5221746,7.82264715 14.6356946,7.67885516 C14.7490385,7.53515117 14.9576865,7.51068718 15.1014785,7.62411917 C15.9127504,8.26475911 17.1645503,9.529671 18.5215102,11.9173748 C19.7513981,14.0813826 20.683934,16.5066624 21.218358,18.9311502 C21.25787,19.1099662 21.14479,19.2869342 20.965974,19.3264462 C20.941774,19.3317262 20.917838,19.3342782 20.894254,19.3342782" id="Fill-25" fill="#FFFFFF"></path>
            <path d="M23.0459418,27.9624134 C23.0038778,27.9447254 22.9619018,27.9335494 22.9176378,27.9249254 C22.8889498,27.9071494 22.8733738,27.8894614 22.8733738,27.8894614 L22.6281179,27.8894614 C22.6281179,27.8894614 13.2584067,28.0022774 9.16271103,27.8894614 C8.45985509,27.8701014 7.87148714,26.4168695 7.87148714,25.3907896 C7.78383915,25.0320137 7.79167115,24.5929817 7.87192714,24.1000057 C7.32069519,25.4860936 7.00283922,26.7621815 7.2082312,27.6018774 C7.2082312,28.6279573 8.4264151,30.1005492 8.4264151,30.1005492 L22.2101179,30.1005492 C22.2101179,30.1005492 22.2256059,30.1182372 22.2543819,30.1360132 C22.2986459,30.1445492 22.3405339,30.1558132 22.3825979,30.1735012 C22.5899259,30.1661972 22.9386698,29.8377812 23.1594618,27.9257174 C23.1186298,27.9504454 23.0802618,27.9611814 23.0459418,27.9624134" id="Fill-26" fill="#94CD85"></path>
            <path d="M11.0913189,16.8968544 C12.4836547,16.5047264 12.6139827,14.4815186 12.6139827,14.4815186 C12.6139827,14.4815186 12.6054467,14.4836306 12.5877587,14.4882066 C12.3644148,14.5413586 10.7238309,14.9304065 9.04329504,15.3262305 C7.2369192,15.7528545 5.38627936,16.1864304 5.20939937,16.2240064 C4.99283139,16.2680944 4.76711141,16.2900944 4.53725543,16.2900944 C2.76625559,16.2900944 1.32208771,14.9090225 1.21349572,13.1653027 C0.792679758,13.7227826 0.53959178,14.4149906 0.53959178,15.1671265 C0.53959178,17.0087024 2.03207165,18.5011822 3.87391149,18.5011822 C4.10385547,18.5011822 4.32948745,18.4790942 4.54605543,18.4350942 C4.72284742,18.3975182 6.57357526,17.9639423 8.3800391,17.5373183 C9.40286301,17.2962863 10.4086149,17.0583343 11.0913189,16.8968544" id="Fill-27" fill="#94CD85"></path>
            <polyline id="Fill-28" fill="#25B9A8" points="21.7037659 32.625621 23.7137738 36.4374287 6.75045524 36.4374287 8.49945509 32.625621 21.7037659 32.625621"></polyline>
            <path d="M23.7137738,36.4374287 C24.4101177,36.4374287 24.9738457,37.0034446 24.9738457,37.6997886 C24.9738457,38.3963085 24.4101177,38.9624124 23.7137738,38.9624124 L6.75045524,38.9624124 C6.0538473,38.9624124 5.48791935,38.3963085 5.48791935,37.6997886 C5.48791935,37.3504286 5.62933534,37.0364446 5.85734332,36.8066766 C6.0871113,36.5788447 6.40320727,36.4374287 6.75045524,36.4374287 L23.7137738,36.4374287" id="Fill-29" fill="#22A899"></path>
            <path d="M22.3825979,30.1735012 C22.8733738,30.3436932 23.2249338,30.8124692 23.2249338,31.3630851 C23.2249338,32.059429 22.6611179,32.625621 21.9647739,32.625621 L8.49945509,32.625621 C7.80284715,32.625621 7.2369192,32.059429 7.2369192,31.3630851 C7.2369192,31.0136371 7.37833519,30.6997412 7.60616717,30.4697972 C7.83602315,30.2419652 8.15000712,30.1005492 8.49945509,30.1005492 L21.9647739,30.1005492 C22.0641259,30.1005492 22.1615419,30.1115492 22.2543819,30.1360132 C22.2830699,30.1558132 22.3273339,30.1757012 22.3825979,30.1735012" id="Fill-30" fill="#22A899"></path>
            <path d="M23.7142138,36.8796286 C23.5552858,36.8796286 23.4017258,36.7940046 23.3225258,36.6437006 L21.312518,32.831717 C21.198734,32.615765 21.281454,32.348333 21.497582,32.234285 C21.7132699,32.120677 21.9810539,32.203485 22.0950139,32.419349 L24.1050217,36.2312447 C24.2188057,36.4471087 24.1361737,36.7146286 23.9200458,36.8286766 C23.8543978,36.8632606 23.7837338,36.8796286 23.7142138,36.8796286" id="Fill-31" fill="#000000"></path>
            <path d="M6.75010324,36.8796286 C6.68841525,36.8796286 6.62575925,36.8666926 6.56600726,36.8392366 C6.34407128,36.7375966 6.24665529,36.4750927 6.34847128,36.2530687 L8.09747112,32.441173 C8.19937512,32.219413 8.46205509,32.121821 8.68381507,32.223725 C8.90575105,32.325453 9.00316705,32.587957 8.90135105,32.809893 L7.15235121,36.6218767 C7.07790321,36.7840606 6.91765523,36.8796286 6.75010324,36.8796286" id="Fill-32" fill="#000000"></path>
            <path d="M23.3641498,23.9827017 C23.3021978,23.9827017 23.2396298,23.9695897 23.1798778,23.9422218 C22.9578538,23.8401418 22.8607018,23.5774618 22.9626058,23.3556138 C24.6565177,19.6712301 27.8033974,10.4153029 20.4569821,4.05739147 C17.7415663,1.70761568 13.3933107,0.137607815 10.9674149,1.34980771 L12.3668788,5.06129539 C12.3857108,5.11119138 12.3953028,5.16399138 12.3953028,5.21731937 C12.3953028,5.46151935 12.1973028,5.66057534 11.9531028,5.66057534 C11.7542228,5.66057534 11.5859668,5.52998335 11.5304388,5.34958336 L10.006895,1.30941571 C9.93359097,1.11484773 10.005663,0.895375749 10.1802549,0.782383759 C12.6534947,-0.819920102 17.5234143,0.348807796 21.035758,3.38850353 C23.6341338,5.63734334 29.1014853,12.1203908 23.7663098,23.7251258 C23.6917738,23.8871338 23.5315258,23.9827017 23.3641498,23.9827017" id="Fill-33" fill="#000000"></path>
            <path d="M22.3740619,30.6159652 C22.2708379,30.6159652 22.1673499,30.5905332 22.0746859,30.5427492 L21.9647739,30.5427492 C21.7206619,30.5427492 21.522662,30.3447492 21.522662,30.1005492 C21.522662,29.8563492 21.7206619,29.6583493 21.9647739,29.6583493 L22.2101179,29.6583493 C22.2487499,29.6583493 22.2867659,29.6633653 22.3234619,29.6730453 C22.4925099,29.3664533 22.8990698,28.1505574 22.9198378,23.5383018 C22.9222138,23.4001418 22.9222138,23.2633898 22.9222138,23.1245258 C22.9222138,19.4145341 21.6722619,15.0002785 19.5786541,11.3165988 C17.6133503,7.85837515 15.2859265,5.67025534 13.5048067,5.60610334 C12.9379107,5.58524734 12.4483667,5.60170334 12.0073108,5.65617534 C11.2041349,5.75869533 10.5689509,5.99462331 10.009711,6.39836727 C9.22554303,6.96658322 8.55973508,7.61091917 7.78876715,8.3570711 C6.46102327,9.64187099 4.81084741,11.2390709 1.72970368,13.2317427 C1.24693572,13.7654626 0.981791741,14.4508066 0.981791741,15.1671265 C0.981791741,16.7616864 2.27917563,18.0588943 3.87391149,18.0588943 C4.07481547,18.0588943 4.27131946,18.0397103 4.45796744,18.0016943 C4.62226343,17.9668463 6.44509527,17.5398703 8.27831111,17.1069103 C9.95875896,16.7110864 11.5989028,16.3221264 11.8219828,16.2690624 L11.8435428,16.2635184 C12.0205988,16.2189024 12.2081268,16.2889504 12.3131988,16.4394304 C12.4181827,16.5897344 12.4195907,16.7892304 12.3165428,16.9409424 C10.8321589,19.1280062 7.09770321,25.2875656 7.63775916,27.4968934 C7.64620716,27.5313014 7.65043116,27.5664134 7.65043116,27.6018774 C7.65043116,28.2422534 8.30902311,29.2288213 8.66507108,29.6904693 C8.82725506,29.7559412 8.94156705,29.9148692 8.94156705,30.1005492 C8.94156705,30.3447492 8.74356707,30.5427492 8.49945509,30.5427492 L8.4264151,30.5427492 C8.29459111,30.5427492 8.16963112,30.4840532 8.08567913,30.3823252 C7.95271114,30.2216372 6.80281524,28.7993813 6.76682324,27.6560854 C6.47818326,26.3414535 7.2041832,24.0540697 8.92563905,20.85571 C9.67135099,19.4701501 10.4537589,18.1973182 10.9751589,17.3787423 C10.3043349,17.5375823 9.39881501,17.7516863 8.48132709,17.9677263 C6.82023924,18.3600302 4.83302341,18.8262542 4.63792742,18.8677022 C4.38967945,18.9181262 4.13386347,18.9433822 3.87391149,18.9433822 C1.79147967,18.9433822 0.0973918182,17.2492943 0.0973918182,15.1671265 C0.0973918182,14.2215666 0.450447788,13.3176307 1.09223173,12.6181187 C1.12171173,12.5810707 1.15717573,12.5485987 1.19774372,12.5224627 C4.23946346,10.5612069 5.86649532,8.98671105 7.1737352,7.72153516 C7.96890314,6.95197522 8.65574308,6.28722328 9.491479,5.68169533 C10.1663509,5.19452738 10.9530709,4.8992874 11.8970468,4.77863941 C12.3874708,4.71818342 12.9232147,4.69979142 13.5369267,4.72231942 C18.1435503,4.8881114 23.8067018,15.0351265 23.8067018,23.1245258 C23.8067018,23.2688458 23.8067018,23.4107018 23.8042378,23.5481578 C23.7764298,29.7152853 23.1120298,30.5898292 22.3983499,30.6155252 C22.3904299,30.6159652 22.3821579,30.6159652 22.3740619,30.6159652" id="Fill-34" fill="#000000"></path>
            <path d="M11.7519348,17.3161743 C11.6328708,17.3161743 11.5142468,17.2683903 11.4271268,17.1740543 C11.2614229,16.9947984 11.2724228,16.7148704 11.4516788,16.5491664 C11.4990228,16.5055184 11.5466308,16.4604624 11.5886068,16.4114464 C11.8827028,16.0818864 12.0414548,15.6627425 12.0414548,15.2245025 C12.0414548,14.7479825 11.8565668,14.3006786 11.5210228,13.9650466 C11.3482788,13.7923906 11.3482788,13.5122867 11.5210228,13.3397187 C11.6935028,13.1669747 11.9737828,13.1669747 12.1463508,13.3397187 C12.6490067,13.8422866 12.9258547,14.5117906 12.9258547,15.2245025 C12.9258547,15.8801904 12.6872867,16.5085104 12.2543268,16.9936544 C12.1899988,17.0688063 12.1155508,17.1399983 12.0520148,17.1986943 C11.9669188,17.2772783 11.8592948,17.3161743 11.7519348,17.3161743" id="Fill-35" fill="#000000"></path>
            <path d="M8.49945509,30.5427492 C8.28112711,30.5427492 8.07432713,30.6284612 7.91733514,30.7839572 C7.76474315,30.9378691 7.67911916,31.1447571 7.67911916,31.3630851 C7.67911916,31.8154051 8.04704713,32.183333 8.49945509,32.183333 L21.9647739,32.183333 C22.4158619,32.183333 22.7827339,31.8154051 22.7827339,31.3630851 C22.7827339,31.0145171 22.5637899,30.7043172 22.2377499,30.5913252 C22.2288619,30.5883332 22.2200619,30.5848132 22.2111739,30.5812052 C22.2053659,30.5785652 22.1947179,30.5749572 22.1697259,30.5699412 C22.1604859,30.5682692 22.1511579,30.5660692 22.1419179,30.5636932 C22.0891179,30.5498772 22.0295419,30.5427492 21.9647739,30.5427492 L8.49945509,30.5427492 Z M21.9647739,33.067733 L8.49945509,33.067733 C7.55935117,33.067733 6.79463124,32.303013 6.79463124,31.3630851 C6.79463124,30.9100611 6.97133522,30.4822932 7.29191919,30.1586292 C7.61866317,29.8349652 8.04643113,29.6583493 8.49945509,29.6583493 L21.9647739,29.6583493 C22.1003819,29.6583493 22.2308859,29.6739253 22.3530299,29.7047253 C22.4214939,29.7188053 22.4816859,29.7367572 22.5400299,29.7599892 C23.2147258,29.9999652 23.6671338,30.6423652 23.6671338,31.3630851 C23.6671338,32.303013 22.9033818,33.067733 21.9647739,33.067733 L21.9647739,33.067733 Z" id="Fill-36" fill="#000000"></path>
            <path d="M6.75045524,36.8796286 C6.53203926,36.8796286 6.32550328,36.9651646 6.16868729,37.1206606 C6.01574331,37.2748366 5.93011931,37.4814606 5.93011931,37.6997886 C5.93011931,38.1521085 6.29804728,38.5202125 6.75045524,38.5202125 L23.7137738,38.5202125 C24.1648617,38.5202125 24.5317337,38.1521085 24.5317337,37.6997886 C24.5317337,37.2476446 24.1648617,36.8796286 23.7137738,36.8796286 L6.75045524,36.8796286 Z M23.7137738,39.4047004 L6.75045524,39.4047004 C5.81035132,39.4047004 5.04571939,38.6398045 5.04571939,37.6997886 C5.04571939,37.2462366 5.22242337,36.8185566 5.54353535,36.4950687 C5.86948732,36.1718447 6.29716728,35.9953167 6.75045524,35.9953167 L23.7137738,35.9953167 C24.6523817,35.9953167 25.4161336,36.7598606 25.4161336,37.6997886 C25.4161336,38.6398045 24.6523817,39.4047004 23.7137738,39.4047004 L23.7137738,39.4047004 Z" id="Fill-37" fill="#000000"></path>
            <path d="M28.4496694,39.4047004 L2.01218365,39.4047004 C1.76798367,39.4047004 1.56998369,39.2067004 1.56998369,38.9624124 C1.56998369,38.7183005 1.76798367,38.5202125 2.01218365,38.5202125 L28.4496694,38.5202125 C28.6938693,38.5202125 28.8918693,38.7183005 28.8918693,38.9624124 C28.8918693,39.2067004 28.6938693,39.4047004 28.4496694,39.4047004" id="Fill-38" fill="#000000"></path>
        </g>
    </g>
</svg>