<?xml version="1.0" encoding="UTF-8"?>
<svg width="40px" height="40px" viewBox="0 0 40 40" version="1.1" xmlns="http://www.w3.org/2000/svg" xmlns:xlink="http://www.w3.org/1999/xlink">
    <!-- Generator: Sketch 58 (84663) - https://sketch.com -->
    <title>Pensamiento_40x40</title>
    <desc>Created with Sketch.</desc>
    <g id="Pensamiento_40x40" stroke="none" stroke-width="1" fill="none" fill-rule="evenodd">
        <g id="shutterstock_328295651" transform="translate(1.000000, 5.000000)">
            <path d="M34.3549523,13.311941 C36.5248825,13.393631 38.2599026,15.1772662 38.2599026,17.3650463 L38.2599026,17.4708863 C38.2599026,19.7114815 36.4430875,21.5282966 34.2025973,21.5282966 L23.0416216,21.5282966 L23.0416216,21.5746016 C23.0416216,23.5657167 21.4279815,25.1792519 19.4369713,25.1792519 L15.310996,25.1792519 L15.310996,25.2278669 C15.310996,27.216672 13.6997709,28.8326221 11.7085508,28.8326221 L4.76175032,28.8326221 C2.77063519,28.8326221 1.15689008,27.216672 1.15689008,25.2278669 L1.15689008,25.1331568 C1.15689008,23.1417267 2.77063519,21.5282966 4.76175032,21.5282966 L4.58283031,21.5282966 C2.34223516,21.5282966 0.525525036,19.7114815 0.525525036,17.4708863 L0.525525036,17.3650463 C0.525525036,15.3760312 1.96035013,13.7182911 3.85434026,13.375991 L3.85003526,13.347326 C2.26516515,11.7622459 2.26516515,9.19510076 3.85003526,7.61012565 L3.92500527,7.53494565 C5.16117035,6.29678557 7.00003548,6.02525555 8.49891058,6.72287559 L8.53419058,6.64318059 C8.27809556,4.54843045 9.68205066,2.58377531 11.7858308,2.17312028 L11.8894658,2.15327528 C13.1588109,1.90610527 14.403796,2.27906529 15.313306,3.05837534 C15.8961611,1.53083524 17.3751912,0.446920167 19.1059063,0.446920167 L19.2117463,0.446920167 C20.9114864,0.446920167 22.3684665,1.49324524 22.9709566,2.97899534 C23.8695466,2.25481029 25.0637117,1.91723527 26.2822368,2.15327528 L26.3859768,2.17312028 C28.5229369,2.59039031 29.937707,4.61458045 29.621972,6.7470256 C31.1298771,6.02084555 32.9952022,6.28345056 34.2468023,7.53494565 L34.3218773,7.61012565 C35.8957224,9.18418076 35.9067474,11.7247609 34.3549523,13.311941" id="Fill-29" fill="#FEE4E1"></path>
            <path d="M3.36441023,25.2278669 L3.36441023,25.1331568 C3.36441023,23.1417267 4.97805034,21.5282966 6.96927047,21.5282966 L6.79035046,21.5282966 C4.54975531,21.5282966 2.73304519,19.7114815 2.73304519,17.4708863 L2.73304519,17.3650463 C2.73304519,15.3760312 4.16787028,13.7182911 6.06175541,13.375991 L6.05734541,13.347326 C4.4724753,11.7622459 4.4724753,9.19510076 6.05734541,7.61012565 L6.13252542,7.53494565 C6.64104045,7.02559061 7.25193049,6.68266059 7.89873054,6.50059058 C6.53184044,6.11303555 5.00041534,6.45775058 3.92500527,7.53494565 L3.85003526,7.61012565 C2.26516515,9.19510076 2.26516515,11.7622459 3.85003526,13.347326 L3.85434026,13.375991 C1.96035013,13.7182911 0.525525036,15.3760312 0.525525036,17.3650463 L0.525525036,17.4708863 C0.525525036,19.7114815 2.34223516,21.5282966 4.58283031,21.5282966 L4.76175032,21.5282966 C2.77063519,21.5282966 1.15689008,23.1417267 1.15689008,25.1331568 L1.15689008,25.2278669 C1.15689008,27.216672 2.77063519,28.8326221 4.76175032,28.8326221 L6.96927047,28.8326221 C4.97805034,28.8326221 3.36441023,27.216672 3.36441023,25.2278669" id="Fill-30" fill="#FDC9C2"></path>
            <path d="M13.1036859,25.2278669 C13.1036859,27.216672 11.4922508,28.8326221 9.50103065,28.8326221 L11.7085508,28.8326221 C13.6997709,28.8326221 15.310996,27.216672 15.310996,25.2278669 L15.310996,25.1792519 L13.1036859,25.1792519 L13.1036859,25.2278669" id="Fill-31" fill="#FDC9C2"></path>
            <path d="M34.3549523,13.311941 C35.9067474,11.7247609 35.8957224,9.18418076 34.3218773,7.61012565 L34.2468023,7.53494565 C33.1704473,6.45880058 31.6408072,6.11576555 30.2744421,6.50216558 C30.9204021,6.68413059 31.5308721,7.02664061 32.0392822,7.53494565 L32.1144622,7.61012565 C33.6882023,9.18418076 33.6992273,11.7247609 32.1476422,13.311941 C34.3174673,13.393631 36.0524875,15.1772662 36.0524875,17.3650463 L36.0524875,17.4708863 C36.0524875,19.7114815 34.2357773,21.5282966 31.9951822,21.5282966 L34.2025973,21.5282966 C36.4430875,21.5282966 38.2599026,19.7114815 38.2599026,17.4708863 L38.2599026,17.3650463 C38.2599026,15.1772662 36.5248825,13.393631 34.3549523,13.311941" id="Fill-32" fill="#FDC9C2"></path>
            <path d="M20.8343114,21.5746016 C20.8343114,23.5657167 19.2205663,25.1792519 17.2294512,25.1792519 L19.4369713,25.1792519 C21.4279815,25.1792519 23.0416216,23.5657167 23.0416216,21.5746016 L23.0416216,21.5282966 L20.8343114,21.5282966 L20.8343114,21.5746016" id="Fill-33" fill="#FDC9C2"></path>
            <path d="M19.4369713,25.6010369 L6.96255047,25.6010369 C6.72966046,25.6010369 6.54076545,25.4121419 6.54076545,25.1792519 C6.54076545,24.9462568 6.72966046,24.7573618 6.96255047,24.7573618 L19.4369713,24.7573618 C21.1919414,24.7573618 22.6199415,23.3295717 22.6199415,21.5746016 C22.6199415,21.3416066 22.8088366,21.1528166 23.0416216,21.1528166 C23.2745116,21.1528166 23.4634066,21.3416066 23.4634066,21.5746016 C23.4634066,23.7947218 21.6571965,25.6010369 19.4369713,25.6010369" id="Fill-34" fill="#000000"></path>
            <path d="M11.7085508,29.2544071 L4.76175032,29.2544071 C2.54152517,29.2544071 0.73510505,27.448092 0.73510505,25.2278669 L0.73510505,25.1331568 C0.73510505,22.9127217 2.54152517,21.1065116 4.76175032,21.1065116 C4.99464034,21.1065116 5.18353535,21.2953016 5.18353535,21.5282966 C5.18353535,21.7610816 4.99464034,21.9499766 4.76175032,21.9499766 C3.0065702,21.9499766 1.57867511,23.3779767 1.57867511,25.1331568 L1.57867511,25.2278669 C1.57867511,26.983047 3.0065702,28.4108371 4.76175032,28.4108371 L11.7085508,28.4108371 C13.4623659,28.4108371 14.889316,26.983047 14.889316,25.2278669 C14.889316,24.9948718 15.078211,24.8059768 15.310996,24.8059768 C15.5439911,24.8059768 15.7327811,24.9948718 15.7327811,25.2278669 C15.7327811,27.448092 13.9275159,29.2544071 11.7085508,29.2544071" id="Fill-35" fill="#000000"></path>
            <path d="M19.1410813,9.25243077 C23.7113116,9.25243077 27.5421319,6.7561606 28.5758569,3.39458537 C28.0122169,2.78758033 27.2614669,2.3440603 26.3859768,2.17312028 L26.2822368,2.15327528 C25.0637117,1.91723527 23.8695466,2.25481029 22.9709566,2.97899534 C22.3684665,1.49324524 20.9114864,0.446920167 19.2117463,0.446920167 L19.1059063,0.446920167 C17.3751912,0.446920167 15.8961611,1.53083524 15.313306,3.05837534 C14.403796,2.27906529 13.1588109,1.90610527 11.8894658,2.15327528 L11.7858308,2.17312028 C10.9536007,2.3354503 10.2337207,2.74379532 9.67995066,3.30439036 C10.6725157,6.71143059 14.530006,9.25243077 19.1410813,9.25243077" id="Fill-36" fill="#FEEBE9"></path>
            <path d="M34.2025973,21.9499766 L15.306796,21.9499766 C15.073906,21.9499766 14.885116,21.7610816 14.885116,21.5282966 C14.885116,21.2953016 15.073906,21.1065116 15.306796,21.1065116 L34.2025973,21.1065116 C36.2071525,21.1065116 37.8381176,19.4756515 37.8381176,17.4708863 L37.8381176,17.3650463 C37.8381176,15.4024912 36.3013375,13.8073311 34.3390973,13.7334111 C34.2921623,13.7314161 34.2474323,13.7317311 34.2025973,13.7315211 L29.251322,13.7315211 C29.018432,13.7315211 28.829537,13.5427311 28.829537,13.309841 C28.829537,13.076846 29.018432,12.887951 29.251322,12.887951 L34.2025973,12.887951 C34.2594023,12.887951 34.3159973,12.888056 34.3729073,12.890576 C36.7880125,12.981506 38.6815826,14.9470012 38.6815826,17.3650463 L38.6815826,17.4708863 C38.6815826,19.9406965 36.6724075,21.9499766 34.2025973,21.9499766" id="Fill-37" fill="#000000"></path>
            <path d="M8.50563058,21.9499766 L4.58283031,21.9499766 C2.11302014,21.9499766 0.103740007,19.9406965 0.103740007,17.4708863 L0.103740007,17.3650463 C0.103740007,15.1979512 1.64955011,13.345856 3.77947526,12.960926 C4.03798528,12.912731 4.30909529,12.887951 4.58283031,12.887951 L7.26264049,12.887951 C7.49563551,12.887951 7.68442552,13.076846 7.68442552,13.309841 C7.68442552,13.5427311 7.49563551,13.7315211 7.26264049,13.7315211 L4.58283031,13.7315211 C4.3608603,13.7315211 4.14183028,13.7513661 3.93172527,13.7906361 C2.20143015,14.1032211 0.947205065,15.6062962 0.947205065,17.3650463 L0.947205065,17.4708863 C0.947205065,19.4756515 2.57827518,21.1065116 4.58283031,21.1065116 L8.50563058,21.1065116 C8.7385206,21.1065116 8.92731061,21.2953016 8.92731061,21.5282966 C8.92731061,21.7610816 8.7385206,21.9499766 8.50563058,21.9499766" id="Fill-38" fill="#000000"></path>
            <path d="M15.310996,3.48457037 C15.078211,3.48457037 14.889316,3.29567536 14.889316,3.06278534 C14.889316,3.00440534 14.901601,2.94676034 14.924701,2.89373533 C15.5865161,1.17730022 17.2647312,0.025240138 19.1059063,0.025240138 L19.2117463,0.025240138 C21.0441014,0.025240138 22.6732815,1.12238521 23.3618716,2.82055033 C23.4494416,3.03632534 23.3453866,3.28234036 23.1296116,3.36980537 C22.9140466,3.45706037 22.6677165,3.35321536 22.5801465,3.13744035 C22.0213365,1.75921026 20.6989664,0.868705195 19.2117463,0.868705195 L19.1059063,0.868705195 C17.6071362,0.868705195 16.2414011,1.80908526 15.7073711,3.20863035 L15.7072661,3.20863035 C15.7029611,3.21997036 15.6981311,3.23110036 15.6928811,3.24212536 C15.6254711,3.38534537 15.4798361,3.48457037 15.310996,3.48457037" id="Fill-39" fill="#000000"></path>
            <path d="M30.7830621,21.8970566 C30.5501721,21.8970566 30.3612771,21.7081616 30.3612771,21.4753766 C30.3612771,19.4706115 28.730312,17.8396464 26.7257568,17.8396464 L26.6285268,17.8417464 L24.1123066,17.8418514 C23.8794166,17.8418514 23.6905216,17.6529563 23.6905216,17.4200663 C23.6905216,17.1871763 23.8794166,16.9982813 24.1123066,16.9982813 L26.7171468,16.9962863 C29.195567,16.9961813 31.2047421,19.0054614 31.2047421,21.4753766 C31.2047421,21.7081616 31.0160571,21.8970566 30.7830621,21.8970566" id="Fill-40" fill="#000000"></path>
            <path d="M12.3243758,21.1088216 C12.0914858,21.1088216 11.9026958,20.9200316 11.9026958,20.6871415 C11.9026958,18.6824814 10.2726757,17.0515163 8.26927556,17.0515163 L8.16123056,17.0515163 C7.92823554,17.0515163 7.73944553,16.8627263 7.73944553,16.6298363 C7.73944553,16.3968413 7.92823554,16.2080512 8.16123056,16.2080512 L8.26927556,16.2080512 C10.7378257,16.2080512 12.7461609,18.2173314 12.7461609,20.6871415 C12.7461609,20.9200316 12.5573709,21.1088216 12.3243758,21.1088216" id="Fill-41" fill="#000000"></path>
            <path d="M19.2117463,21.7800866 C18.9788563,21.7800866 18.7899613,21.5911916 18.7899613,21.3581966 L18.7899613,17.3650463 C18.7899613,14.8963912 20.7981914,12.887951 23.2667416,12.887951 C23.4997366,12.887951 23.6884216,13.076846 23.6884216,13.309841 C23.6884216,13.5427311 23.4997366,13.7315211 23.2667416,13.7315211 C21.2634464,13.7315211 19.6334263,15.3615412 19.6334263,17.3650463 L19.6334263,21.3581966 C19.6334263,21.5911916 19.4447413,21.7800866 19.2117463,21.7800866" id="Fill-42" fill="#000000"></path>
            <path d="M11.2560008,13.7315211 L7.26264049,13.7315211 C7.02975048,13.7315211 6.84096047,13.5427311 6.84096047,13.309841 C6.84096047,13.076846 7.02975048,12.887951 7.26264049,12.887951 L11.2560008,12.887951 C13.2594009,12.887951 14.889316,11.2570909 14.889316,9.25243077 C14.889316,9.01954075 15.078211,8.83075074 15.310996,8.83075074 C15.5439911,8.83075074 15.7327811,9.01954075 15.7327811,9.25243077 C15.7327811,11.7222409 13.7245509,13.7315211 11.2560008,13.7315211" id="Fill-43" fill="#000000"></path>
            <path d="M34.3227173,13.7664861 C34.2155123,13.7664861 34.1083073,13.7261661 34.0266173,13.6448961 C33.8613473,13.4809911 33.8583023,13.215971 34.0222073,13.050491 C34.0223123,13.050386 34.0261973,13.046711 34.0261973,13.046501 C34.0339673,13.037051 34.0447823,13.025816 34.0534973,13.017101 C35.4378174,11.6010709 35.4245874,9.30934077 34.0235723,7.90843067 L33.9481823,7.83272567 C32.8580722,6.7427206 31.1930871,6.45859058 29.805092,7.12691562 C29.434652,7.30415563 29.099387,7.54156065 28.807697,7.83314567 C28.643057,7.99799568 28.3761469,7.99799568 28.2114019,7.83314567 C28.0466569,7.66850566 28.0466569,7.40149064 28.2114019,7.23685063 C28.5708169,6.8773306 28.984307,6.58448558 29.440007,6.36661057 C31.1494071,5.54362051 33.2011073,5.89295554 34.5450024,7.23685063 L34.6204974,7.31234563 C36.3428125,9.03476575 36.3622375,11.8510759 34.6662774,13.5967011 C34.6525224,13.6124511 34.6385574,13.6270461 34.6245924,13.6410111 C34.5417474,13.7243811 34.4322323,13.7664861 34.3227173,13.7664861" id="Fill-44" fill="#000000"></path>
            <path d="M19.7111263,8.3322107 C19.5707413,8.3322107 19.4335063,8.2621757 19.3533913,8.13449569 C19.2297013,7.93720068 19.2891313,7.67690566 19.4866363,7.55300565 C20.3128814,7.03462062 20.8902764,6.22811556 21.1124564,5.2818555 C21.3130065,4.25348543 21.8804265,3.31321036 22.7070915,2.65003032 C23.7360916,1.82063526 25.0684367,1.48883524 26.3624568,1.73926025 L26.4653568,1.75889526 C28.821137,2.21890029 30.3903621,4.43681544 30.039242,6.8087656 C30.005117,7.03924062 29.790917,7.19905063 29.560232,7.16419062 C29.329862,7.13017062 29.170577,6.91565561 29.204807,6.68518059 C29.489777,4.76032046 28.2161269,2.96020034 26.3052318,2.58703031 L26.2029618,2.56750031 C25.1524367,2.3641153 24.0715666,2.63375532 23.2356616,3.30733036 C22.5637665,3.8465054 22.1026065,4.61048545 21.9370215,5.45920051 C21.6602415,6.63856059 20.9503364,7.63039066 19.9346714,8.2676357 C19.8650564,8.3113157 19.7876713,8.3322107 19.7111263,8.3322107" id="Fill-45" fill="#000000"></path>
            <path d="M3.85003526,13.7691111 C3.74209525,13.7691111 3.63405025,13.7278461 3.55183524,13.6455261 C1.80568512,11.8991659 1.80568512,9.05797075 3.55183524,7.31192563 L3.62670025,7.23706063 C4.95022534,5.91091054 6.97998048,5.55086551 8.67688559,6.34046557 C9.14980562,6.55823558 9.58135565,6.8601106 9.95820068,7.23674563 C10.1230507,7.40149064 10.1230507,7.66840066 9.95830568,7.83314567 C9.79356067,7.99799568 9.52654565,7.99789068 9.36190564,7.83325067 C9.05583062,7.52728065 8.70607559,7.28252563 8.32251057,7.10581062 C6.94417547,6.46478558 5.29777536,6.7568956 4.22352029,7.83293567 L4.14834028,7.90822067 C2.73094519,9.32561577 2.73105019,11.6317309 4.14813028,13.049231 C4.31287529,13.213871 4.31287529,13.4808861 4.14813028,13.6455261 C4.06581028,13.7278461 3.95787027,13.7691111 3.85003526,13.7691111" id="Fill-46" fill="#000000"></path>
            <path d="M8.53366558,7.06496562 C8.32356057,7.06496562 8.14170055,6.90830561 8.11555555,6.69442059 C7.83205553,4.37518043 9.40873564,2.20745529 11.7049808,1.75921026 L11.8100858,1.73905025 C13.1621709,1.47592024 14.539351,1.83985026 15.5877761,2.73812532 C15.9528611,3.05354534 16.2612461,3.42010037 16.5053711,3.8287604 C16.6248611,4.02868041 16.5596561,4.28761043 16.3596311,4.40710044 C16.1599211,4.52659044 15.9008861,4.46138544 15.7812911,4.26136043 C15.5833661,3.9302954 15.333151,3.63283038 15.037576,3.37757537 C14.187391,2.64898032 13.0686159,2.3533003 11.9701058,2.56718531 L11.8652108,2.58734531 C10.0026157,2.95096034 8.72277059,4.71013046 8.95293061,6.59204559 C8.98107061,6.8232556 8.8165356,7.03357062 8.58543058,7.06192062 C8.56800058,7.06391562 8.55078058,7.06496562 8.53366558,7.06496562" id="Fill-47" fill="#000000"></path>
        </g>
    </g>
</svg>