<?xml version="1.0" encoding="UTF-8"?>
<svg width="40px" height="40px" viewBox="0 0 40 40" version="1.1" xmlns="http://www.w3.org/2000/svg" xmlns:xlink="http://www.w3.org/1999/xlink">
    <!-- Generator: Sketch 58 (84663) - https://sketch.com -->
    <title>Respuesta_40x40</title>
    <desc>Created with Sketch.</desc>
    <g id="Respuesta_40x40" stroke="none" stroke-width="1" fill="none" fill-rule="evenodd">
        <g id="shutterstock_1265400544" transform="translate(2.000000, 0.000000)">
            <path d="M35.0861684,22.108799 C35.0861684,31.6282036 27.3692988,39.3450732 17.8499992,39.3450732 C8.33069962,39.3450732 0.613829972,31.6282036 0.613829972,22.108799 C0.613829972,12.5896044 8.33069962,4.87262978 17.8499992,4.87262978 C27.3692988,4.87262978 35.0861684,12.5896044 35.0861684,22.108799" id="Fill-20" fill="#51B9A7"></path>
            <path d="M17.8499992,5.18930976 C8.52043461,5.18930976 0.930404958,12.7793394 0.930404958,22.108904 C0.930404958,31.4383636 8.52043461,39.0284982 17.8499992,39.0284982 C27.1795638,39.0284982 34.7696984,31.4383636 34.7696984,22.108904 C34.7696984,12.7793394 27.1795638,5.18930976 17.8499992,5.18930976 Z M17.8499992,39.6616482 C8.17130963,39.6616482 0.297254987,31.7874886 0.297254987,22.108904 C0.297254987,12.4302144 8.17130963,4.55615979 17.8499992,4.55615979 C27.5286887,4.55615979 35.4028484,12.4302144 35.4028484,22.108904 C35.4028484,31.7874886 27.5286887,39.6616482 17.8499992,39.6616482 L17.8499992,39.6616482 Z" id="Fill-21" fill="#0A0B09"></path>
            <path d="M32.3284485,22.108799 C32.3284485,30.1050736 25.8461688,36.5872483 17.8499992,36.5872483 C9.85382955,36.5872483 3.37154985,30.1050736 3.37154985,22.108799 C3.37154985,14.1126294 9.85382955,7.63045465 17.8499992,7.63045465 C25.8461688,7.63045465 32.3284485,14.1126294 32.3284485,22.108799" id="Fill-22" fill="#FFFFFE"></path>
            <path d="M17.8499992,7.94702964 C10.0411495,7.94702964 3.68812483,14.3000544 3.68812483,22.108799 C3.68812483,29.9177536 10.0411495,36.2706734 17.8499992,36.2706734 C25.6588488,36.2706734 32.0117685,29.9177536 32.0117685,22.108799 C32.0117685,14.3000544 25.6588488,7.94702964 17.8499992,7.94702964 M17.8499992,36.9037183 C9.69202456,36.9037183 3.05497486,30.2668786 3.05497486,22.108799 C3.05497486,13.9509294 9.69202456,7.31387967 17.8499992,7.31387967 C26.0079738,7.31387967 32.6448135,13.9509294 32.6448135,22.108799 C32.6448135,30.2668786 26.0079738,36.9037183 17.8499992,36.9037183" id="Fill-23" fill="#0A0B09"></path>
            <path d="M17.8477942,22.108799 L32.3284485,22.108799 C32.3284485,14.1126294 25.8461688,7.63045465 17.8499992,7.63045465 L17.8477942,7.63045465 L17.8477942,22.108799" id="Fill-24" fill="#E77E70"></path>
            <path d="M18.1642642,21.792224 L32.0081985,21.792224 C31.8416686,14.2333794 25.7235288,8.11565963 18.1642642,7.95038964 L18.1642642,21.792224 M32.3283435,22.425479 L17.8477942,22.425479 C17.6728642,22.425479 17.5311142,22.283729 17.5311142,22.108799 L17.5311142,7.63055965 C17.5311142,7.45562966 17.6728642,7.31398467 17.8477942,7.31398467 C26.0079738,7.31398467 32.6448135,13.9509294 32.6448135,22.108799 C32.6448135,22.283729 32.5031685,22.425479 32.3283435,22.425479" id="Fill-25" fill="#0A0B09"></path>
            <path d="M22.331399,2.80433987 L13.3685994,2.80433987 C12.7973994,2.80433987 12.3344544,2.34128989 12.3344544,1.77019492 C12.3344544,1.19899495 12.7973994,0.735944967 13.3685994,0.735944967 L22.331399,0.735944967 C22.902599,0.735944967 23.3655439,1.19899495 23.3655439,1.77019492 C23.3655439,2.34128989 22.902599,2.80433987 22.331399,2.80433987" id="Fill-26" fill="#51B9A7"></path>
            <path d="M13.3685994,1.05262495 C12.9729594,1.05262495 12.6510294,1.37455494 12.6510294,1.77019492 C12.6510294,2.1657299 12.9729594,2.48776489 13.3685994,2.48776489 L22.331504,2.48776489 C22.727144,2.48776489 23.049179,2.1657299 23.049179,1.77019492 C23.049179,1.37455494 22.727144,1.05262495 22.331504,1.05262495 L13.3685994,1.05262495 Z M22.331504,3.12091486 L13.3685994,3.12091486 C12.6238344,3.12091486 12.0178795,2.51495989 12.0178795,1.77019492 C12.0178795,1.02542995 12.6238344,0.419474981 13.3685994,0.419474981 L22.331504,0.419474981 C23.076269,0.419474981 23.6822239,1.02542995 23.6822239,1.77019492 C23.6822239,2.51495989 23.076269,3.12091486 22.331504,3.12091486 L22.331504,3.12091486 Z" id="Fill-27" fill="#0A0B09"></path>
            <polygon id="Fill-28" fill="#A1CD89" points="16.8158542 4.87262978 18.8842491 4.87262978 18.8842491 2.80433987 16.8158542 2.80433987"></polygon>
            <path d="M17.1324292,4.55615979 L18.5676742,4.55615979 L18.5676742,3.12091486 L17.1324292,3.12091486 L17.1324292,4.55615979 Z M18.8842491,5.18930976 L16.8158542,5.18930976 C16.6409242,5.18930976 16.4992793,5.04755977 16.4992793,4.87273478 L16.4992793,2.80433987 C16.4992793,2.62940988 16.6409242,2.48776489 16.8158542,2.48776489 L18.8842491,2.48776489 C19.0590741,2.48776489 19.2008241,2.62940988 19.2008241,2.80433987 L19.2008241,4.87273478 C19.2008241,5.04755977 19.0590741,5.18930976 18.8842491,5.18930976 L18.8842491,5.18930976 Z" id="Fill-29" fill="#0A0B09"></path>
            <path d="M32.5278435,9.49682957 L30.0902686,7.05925468 C29.6864387,6.6554247 29.6864387,6.00064473 30.0902686,5.59681475 C30.4942036,5.19287976 31.1488786,5.19287976 31.5528136,5.59681475 L33.9903885,8.03438964 C34.3942184,8.43821962 34.3942184,9.09299959 33.9903885,9.49682957 C33.5864535,9.90076455 32.9317785,9.90076455 32.5278435,9.49682957" id="Fill-30" fill="#51B9A7"></path>
            <path d="M32.7517035,9.27286458 C33.0229185,9.54418457 33.4953135,9.54407957 33.7665285,9.27296958 C33.9021885,9.13741459 33.9767385,8.95733959 33.9767385,8.7656096 C33.9767385,8.57387961 33.9021885,8.39380462 33.7665285,8.25824962 L31.3288486,5.82067474 C31.0574236,5.54956475 30.5852386,5.54977475 30.3142336,5.82067474 C30.1785736,5.95622973 30.1040236,6.13630472 30.1040236,6.32803471 C30.1040236,6.5197647 30.1785736,6.6998397 30.3142336,6.83539469 L32.7517035,9.27296958 L32.7517035,9.27286458 Z M33.2590635,10.1163295 C32.8983885,10.1163295 32.5591335,9.97583955 32.3039835,9.72079456 L32.3039835,9.72068956 L29.8665136,7.28311467 C29.6114687,7.02806968 29.4708737,6.6888147 29.4708737,6.32803471 C29.4708737,5.96725473 29.6114687,5.62799974 29.8665136,5.37284976 C30.1214536,5.11780477 30.4608136,4.97731477 30.8216986,4.97731477 C31.1823736,4.97731477 31.5216286,5.11780477 31.7765686,5.37295476 L34.2142484,7.81052965 C34.4692934,8.06557463 34.6098884,8.40482962 34.6098884,8.7656096 C34.6098884,9.12638959 34.4692934,9.46564457 34.2142484,9.72079456 C33.9593085,9.97583955 33.6199485,10.1163295 33.2590635,10.1163295 L33.2590635,10.1163295 Z" id="Fill-31" fill="#0A0B09"></path>
            <polyline id="Fill-32" fill="#A1CD89" points="29.1152387 9.00931459 30.5777836 7.54687466 32.0403285 9.00931459 30.5777836 10.4718595 29.1152387 9.00931459"></polyline>
            <path d="M29.5629587,9.00931459 L30.5778886,10.0242445 L31.5927136,9.00931459 L30.5778886,7.99448964 L29.5629587,9.00931459 Z M30.5778886,10.7884345 C30.4968286,10.7884345 30.4158736,10.7575645 30.3540286,10.6957195 L28.8913787,9.23317458 C28.7677937,9.10958959 28.7677937,8.9090396 28.8913787,8.7854546 L30.3540286,7.32290967 C30.4777186,7.19921967 30.6780586,7.19921967 30.8017486,7.32290967 L32.2641885,8.7854546 C32.3878785,8.9090396 32.3878785,9.10958959 32.2641885,9.23317458 L30.8017486,10.6957195 C30.7399036,10.7575645 30.6588436,10.7884345 30.5778886,10.7884345 L30.5778886,10.7884345 Z" id="Fill-33" fill="#0A0B09"></path>
            <path d="M32.3283435,22.425479 L28.8812987,22.425479 C28.7064737,22.425479 28.5647237,22.283729 28.5647237,22.108799 C28.5647237,21.933974 28.7064737,21.792224 28.8812987,21.792224 L32.3283435,21.792224 C32.5031685,21.792224 32.6448135,21.933974 32.6448135,22.108799 C32.6448135,22.283729 32.5031685,22.425479 32.3283435,22.425479" id="Fill-34" fill="#0A0B09"></path>
            <path d="M17.8499992,20.7019041 C17.6751742,20.7019041 17.5334242,20.5601541 17.5334242,20.3852241 L17.5334242,7.63055965 C17.5334242,7.45562966 17.6751742,7.31398467 17.8499992,7.31398467 C18.0249292,7.31398467 18.1665742,7.45562966 18.1665742,7.63055965 L18.1665742,20.3852241 C18.1665742,20.5601541 18.0249292,20.7019041 17.8499992,20.7019041" id="Fill-35" fill="#0A0B09"></path>
            <path d="M19.5735741,22.108904 C19.5735741,23.060729 18.8019291,23.8324789 17.8499992,23.8324789 C16.8980692,23.8324789 16.1263193,23.060729 16.1263193,22.108904 C16.1263193,21.156974 16.8980692,20.3852241 17.8499992,20.3852241 C18.8019291,20.3852241 19.5735741,21.156974 19.5735741,22.108904" id="Fill-36" fill="#51B9A7"></path>
            <path d="M17.8499992,20.7019041 C17.0741542,20.7019041 16.4429993,21.333059 16.4429993,22.108904 C16.4429993,22.884644 17.0741542,23.5157989 17.8499992,23.5157989 C18.6258442,23.5157989 19.2571041,22.884644 19.2571041,22.108904 C19.2571041,21.333059 18.6258442,20.7019041 17.8499992,20.7019041 Z M17.8499992,24.1490539 C16.7250292,24.1490539 15.8098493,23.2337689 15.8098493,22.108904 C15.8098493,20.983934 16.7250292,20.0686491 17.8499992,20.0686491 C18.9749691,20.0686491 19.8902541,20.983934 19.8902541,22.108904 C19.8902541,23.2337689 18.9749691,24.1490539 17.8499992,24.1490539 L17.8499992,24.1490539 Z" id="Fill-37" fill="#0A0B09"></path>
            <path d="M27.8469437,21.074654 L19.2210891,21.074654 C19.4393841,21.363404 19.5735741,21.719039 19.5735741,22.108904 C19.5735741,22.498664 19.4393841,22.854299 19.2210891,23.1430489 L27.8469437,23.1430489 C28.4181437,23.1430489 28.8811937,22.679999 28.8811937,22.108904 C28.8811937,21.537704 28.4181437,21.074654 27.8469437,21.074654" id="Fill-38" fill="#A1CD89"></path>
            <path d="M19.7569041,22.826474 L27.8468387,22.826474 C28.2426887,22.826474 28.5645137,22.504544 28.5645137,22.108904 C28.5645137,21.713264 28.2426887,21.391334 27.8468387,21.391334 L19.7569041,21.391334 C19.8448941,21.619604 19.8902541,21.861524 19.8902541,22.108904 C19.8902541,22.356179 19.8448941,22.598099 19.7569041,22.826474 Z M27.8468387,23.4596239 L19.2210891,23.4596239 C19.1008641,23.4596239 18.9912441,23.3915839 18.9375891,23.2840639 C18.8840391,23.1765439 18.8960091,23.047919 18.9685641,22.952159 C19.1573541,22.702364 19.2571041,22.410779 19.2571041,22.108904 C19.2571041,21.807029 19.1573541,21.515339 18.9685641,21.265544 C18.8960091,21.169889 18.8840391,21.041264 18.9375891,20.933639 C18.9912441,20.8261191 19.1008641,20.7580791 19.2210891,20.7580791 L27.8468387,20.7580791 C28.5918137,20.7580791 29.1976637,21.364139 29.1976637,22.108904 C29.1976637,22.853669 28.5918137,23.4596239 27.8468387,23.4596239 L27.8468387,23.4596239 Z" id="Fill-39" fill="#0A0B09"></path>
            <path d="M17.8939942,33.4842232 C17.6794133,33.4842232 17.5048334,33.6590131 17.5048334,33.8734733 C17.5048334,34.0879334 17.6794133,34.2625042 17.8939942,34.2625042 C18.1085751,34.2625042 18.283155,34.0879334 18.283155,33.8734733 C18.283155,33.6590131 18.1085751,33.4842232 17.8939942,33.4842232 Z M17.8939942,34.9234184 C17.3150202,34.9234184 16.8439942,34.4523074 16.8439942,33.8734733 C16.8439942,33.2945295 17.3150202,32.8234185 17.8939942,32.8234185 C18.4728586,32.8234185 18.9439941,33.2945295 18.9439941,33.8734733 C18.9439941,34.4523074 18.4728586,34.9234184 17.8939942,34.9234184 L17.8939942,34.9234184 Z" id="Fill-40" fill="#0A0B09"></path>
            <path d="M6.17331493,21.7637083 C5.95874519,21.7637083 5.784284,21.9382791 5.784284,22.1528488 C5.784284,22.3674185 5.95874519,22.5419893 6.17331493,22.5419893 C6.38788466,22.5419893 6.56245544,22.3674185 6.56245544,22.1528488 C6.56245544,21.9382791 6.38788466,21.7637083 6.17331493,21.7637083 Z M6.17331493,23.2027939 C5.59437115,23.2027939 5.12336977,22.7317926 5.12336977,22.1528488 C5.12336977,21.5737954 5.59437115,21.102794 6.17331493,21.102794 C6.75236828,21.102794 7.22336967,21.5737954 7.22336967,22.1528488 C7.22336967,22.7317926 6.75236828,23.2027939 6.17331493,23.2027939 L6.17331493,23.2027939 Z" id="Fill-41" fill="#0A0B09"></path>
            <path d="M18.3681742,36.2613284 C24.7994239,34.8819434 29.6462237,29.2336787 29.7922786,22.425479 L32.0083035,22.425479 C31.8431386,29.9160736 25.8329388,35.9914784 18.3681742,36.2613284" id="Fill-42" fill="#E8F5F4"></path>
            <path d="M17.8499992,36.5872483 C17.4229642,36.5872483 17.0012842,36.5649883 16.5835942,36.5287633 C17.1899692,36.4761583 17.7855292,36.3862783 18.3681742,36.2613284 C25.8329388,35.9914784 31.8431386,29.9160736 32.0083035,22.425479 L32.3249835,22.425479 C32.1564585,30.2752786 25.7403288,36.5872483 17.8499992,36.5872483" id="Fill-43" fill="#0A0B09"></path>
            <path d="M32.0081985,21.792224 L29.7922786,21.792224 C29.6462237,14.9840243 24.7991089,9.33565458 18.3677542,7.95626964 C25.8332538,8.22548963 31.8431386,14.3012094 32.0081985,21.792224" id="Fill-44" fill="#D4796C"></path>
            <path d="M32.3249835,21.792224 L29.7922786,21.792224 L32.0081985,21.792224 C31.8431386,14.3012094 25.8332538,8.22548963 18.3677542,7.95626964 C18.3004492,7.94188464 18.2341942,7.92812964 18.1665742,7.91468964 L18.1665742,7.63381465 C25.9110588,7.80013465 32.1586635,14.0477394 32.3249835,21.792224" id="Fill-45" fill="#0A0B09"></path>
            <path d="M17.5311142,7.84444464 C17.2184242,7.78450086 16.9025842,7.73701804 16.5835942,7.70252085 C16.8970192,7.66854834 17.2126492,7.64441342 17.5311142,7.63444465 L17.5311142,7.84444464" id="Fill-46" fill="#0A0B09"></path>
            <path d="M17.5870792,7.84444464 C17.5851892,7.84431372 17.5843492,7.8441828 17.5824592,7.84405188 L17.5824592,7.63444465 C17.5841392,7.63444465 17.5856092,7.63444465 17.5870792,7.63444465 L17.5870792,7.84444464" id="Fill-47" fill="#0A0B09"></path>
            <path d="M32.3249835,22.425479 L29.7922786,22.425479 C29.7945886,22.320164 29.7956386,22.214639 29.7956386,22.108799 C29.7956386,22.003064 29.7945886,21.897539 29.7922786,21.792224 L32.3249835,21.792224 C32.3272935,21.897644 32.3284485,22.002959 32.3284485,22.108799 C32.3284485,22.214744 32.3272935,22.320059 32.3249835,22.425479" id="Fill-48" fill="#0A0B09"></path>
            <path d="M18.1665742,7.91468964 C17.9575192,7.87289964 17.7456292,7.83551964 17.5334242,7.80286465 L17.5334242,7.63444465 C17.6386342,7.63181965 17.7441592,7.63045465 17.8499992,7.63045465 C17.9559442,7.63045465 18.0611542,7.63160965 18.1665742,7.63381465 L18.1665742,7.91468964" id="Fill-49" fill="#0A0B09"></path>
        </g>
    </g>
</svg>